<svg width="24.000000" height="24.000000" viewBox="0 0 24 24" fill="none" xmlns="http://www.w3.org/2000/svg" xmlns:xlink="http://www.w3.org/1999/xlink">
	<desc>
			Created with Pixso.
	</desc>
	<defs>
		<clipPath id="clip15_341">
			<rect id="bxl:trip-advisor" width="24.000000" height="24.000000" fill="white" fill-opacity="0"/>
		</clipPath>
	</defs>
	<rect id="bxl:trip-advisor" width="24.000000" height="24.000000" fill="#FFFFFF" fill-opacity="0"/>
	<g clip-path="url(#clip15_341)">
		<path id="Vector" d="M8.30859 10.28C7.81445 10.28 7.33008 10.4269 6.91797 10.702C6.50781 10.9772 6.1875 11.3683 5.99805 11.8257C5.80859 12.2831 5.75977 12.7863 5.85742 13.2715C5.95508 13.7567 6.19336 14.2021 6.54492 14.5514C6.89453 14.9005 7.3418 15.1378 7.82617 15.2332C8.3125 15.3285 8.81641 15.2776 9.27148 15.0868C9.72852 14.8961 10.1191 14.5741 10.3926 14.1616C10.666 13.7493 10.8105 13.2649 10.8086 12.77C10.8066 12.1088 10.541 11.4755 10.0723 11.0087C9.60352 10.542 8.9707 10.28 8.30859 10.28ZM8.30859 14.0801C8.12695 14.0959 7.94531 14.074 7.77344 14.0155C7.60156 13.9572 7.44336 13.8636 7.30859 13.741C7.17578 13.6182 7.06836 13.469 6.99609 13.3026C6.92188 13.1364 6.88477 12.9567 6.88477 12.775C6.88477 12.5934 6.92188 12.4137 6.99609 12.2474C7.06836 12.0811 7.17578 11.9319 7.30859 11.8091C7.44336 11.6864 7.60156 11.5929 7.77344 11.5345C7.94531 11.4761 8.12695 11.4542 8.30859 11.47C8.49023 11.4542 8.67188 11.4761 8.84375 11.5345C9.01562 11.5929 9.17383 11.6864 9.30859 11.8091C9.44141 11.9319 9.54883 12.0811 9.62109 12.2474C9.69531 12.4137 9.73242 12.5934 9.73242 12.775C9.73242 12.9567 9.69531 13.1364 9.62109 13.3026C9.54883 13.469 9.44141 13.6182 9.30859 13.741C9.17383 13.8636 9.01562 13.9572 8.84375 14.0155C8.67188 14.074 8.49023 14.0959 8.30859 14.0801ZM15.6895 10.28C15.1934 10.28 14.709 10.4269 14.2988 10.702C13.8867 10.9772 13.5664 11.3683 13.3789 11.8257C13.1895 12.2831 13.1406 12.7863 13.2383 13.2715C13.334 13.7567 13.5742 14.2021 13.9238 14.5514C14.2754 14.9005 14.7207 15.1378 15.207 15.2332C15.6934 15.3285 16.1953 15.2776 16.6523 15.0868C17.1094 14.8961 17.498 14.5741 17.7715 14.1616C18.0449 13.7493 18.1914 13.2649 18.1895 12.77C18.1855 12.1088 17.9219 11.4755 17.4531 11.0087C16.9844 10.542 16.3496 10.28 15.6895 10.28ZM16.998 12.77C17 13.0295 16.9258 13.2838 16.7832 13.5005C16.6406 13.7173 16.4355 13.8867 16.1973 13.9874C15.957 14.0881 15.6934 14.1155 15.4395 14.066C15.1836 14.0166 14.9492 13.8927 14.7656 13.7098C14.582 13.5271 14.4551 13.2937 14.4043 13.0393C14.3535 12.7849 14.3789 12.521 14.4766 12.281C14.5762 12.0411 14.7441 11.8359 14.959 11.6915C15.1758 11.5471 15.4297 11.4701 15.6895 11.47C16.0352 11.47 16.3652 11.6067 16.6113 11.8502C16.8574 12.0938 16.9961 12.4243 16.998 12.77Z" fill="#FFFFFF" fill-opacity="1.000000" fill-rule="nonzero"/>
		<path id="Vector" d="M12 2C10.0215 2 8.08789 2.58655 6.44336 3.6853C4.80078 4.78406 3.51758 6.34595 2.76172 8.17322C2.00391 10.0004 1.80664 12.0111 2.19141 13.9509C2.57812 15.8907 3.53125 17.6725 4.92969 19.071C6.32812 20.4696 8.10938 21.422 10.0488 21.8079C11.9883 22.1937 14 21.9957 15.8262 21.2388C17.6543 20.4819 19.2168 19.2002 20.3145 17.5557C21.4141 15.9113 22 13.9778 22 12C22 10.6868 21.7422 9.38647 21.2383 8.17322C20.7363 6.95996 20 5.85754 19.0703 4.92896C18.1426 4.00037 17.041 3.26379 15.8262 2.76123C14.6133 2.25867 13.3125 2 12 2ZM19.3809 12.77C19.3809 13.4885 19.1719 14.1917 18.7793 14.7932C18.3867 15.3948 17.8262 15.8685 17.168 16.1564C16.5098 16.4441 15.7812 16.5334 15.0723 16.4132C14.3652 16.2931 13.707 15.9688 13.1797 15.48L12 16.77L10.8203 15.48C10.4629 15.8083 10.0449 16.063 9.58789 16.2296C9.13281 16.3962 8.64844 16.4716 8.16406 16.451C7.67969 16.4307 7.20312 16.3149 6.76367 16.1106C6.32422 15.9062 5.92773 15.6172 5.59961 15.26C5.27148 14.9028 5.01758 14.4845 4.84961 14.0288C4.68359 13.5731 4.60938 13.0891 4.62891 12.6045C4.64844 12.1198 4.76562 11.6438 4.96875 11.2037C5.17383 10.7638 5.46289 10.3683 5.82031 10.04L4.61914 8.73999L7.30078 8.73999C8.68555 7.7915 10.3262 7.28406 12.0059 7.28406C13.6836 7.28406 15.3242 7.7915 16.7109 8.73999L19.3809 8.73999L18.1797 10.05C18.5566 10.3961 18.8574 10.8164 19.0645 11.2845C19.2715 11.7527 19.3789 12.2584 19.3809 12.77Z" fill="#FFFFFF" fill-opacity="1.000000" fill-rule="nonzero"/>
		<path id="Vector" d="M14.7695 9.05005C13.8926 8.68359 12.9512 8.495 12 8.495C11.0488 8.495 10.1074 8.68359 9.23047 9.05005C10.0059 9.30872 10.6855 9.79565 11.1797 10.4469C11.6738 11.0981 11.959 11.8834 12 12.7C12.043 11.8842 12.3301 11.1002 12.8242 10.4495C13.3184 9.79871 13.9961 9.31116 14.7695 9.05005Z" fill="#FFFFFF" fill-opacity="1.000000" fill-rule="nonzero"/>
	</g>
</svg>
