<svg width="24.000000" height="24.000000" viewBox="0 0 24 24" fill="none" xmlns="http://www.w3.org/2000/svg" xmlns:xlink="http://www.w3.org/1999/xlink">
	<desc>
			Created with Pixso.
	</desc>
	<defs>
		<clipPath id="clip15_339">
			<rect id="ic:baseline-facebook" width="24.000000" height="24.000000" fill="white" fill-opacity="0"/>
		</clipPath>
	</defs>
	<rect id="ic:baseline-facebook" width="24.000000" height="24.000000" fill="#FFFFFF" fill-opacity="0"/>
	<g clip-path="url(#clip15_339)">
		<path id="Vector" d="M22 12C22 6.47998 17.5195 2 12 2C6.48047 2 2 6.47998 2 12C2 16.84 5.43945 20.87 10 21.8L10 15L8 15L8 12L10 12L10 9.5C10 7.56995 11.5703 6 13.5 6L16 6L16 9L14 9C13.4492 9 13 9.44995 13 10L13 12L16 12L16 15L13 15L13 21.95C18.0508 21.45 22 17.1899 22 12Z" fill="#FFFFFF" fill-opacity="1.000000" fill-rule="nonzero"/>
	</g>
</svg>
