<svg width="24.000000" height="24.000000" viewBox="0 0 24 24" fill="none" xmlns="http://www.w3.org/2000/svg" xmlns:xlink="http://www.w3.org/1999/xlink">
	<desc>
			Created with Pixso.
	</desc>
	<defs>
		<clipPath id="clip15_333">
			<rect id="ri:instagram-fill" width="24.000000" height="24.000000" fill="white" fill-opacity="0"/>
		</clipPath>
	</defs>
	<rect id="ri:instagram-fill" width="24.000000" height="24.000000" fill="#FFFFFF" fill-opacity="0"/>
	<g clip-path="url(#clip15_333)">
		<path id="Vector" d="M13.0293 2C14.1543 2.00305 14.7246 2.00903 15.2168 2.02295L15.4121 2.03003C15.6348 2.03796 15.8574 2.04797 16.123 2.06006C17.1875 2.10999 17.9141 2.27795 18.5508 2.52502C19.2109 2.77905 19.7656 3.12305 20.3223 3.67798C20.832 4.17786 21.2246 4.78259 21.4746 5.44995C21.7227 6.08704 21.8906 6.81299 21.9414 7.87805C21.9531 8.14404 21.9629 8.36499 21.9707 8.58997L21.9766 8.78406C21.9922 9.276 21.998 9.84705 22 10.972L22 11.718L22 13.028C22.0039 13.7574 21.9961 14.4868 21.9785 15.2159L21.9707 15.41C21.9629 15.635 21.9531 15.856 21.9414 16.1219C21.8906 17.187 21.7207 17.912 21.4746 18.55C21.2246 19.2178 20.832 19.8226 20.3223 20.322C19.8223 20.8303 19.2188 21.2238 18.5508 21.475C17.9141 21.722 17.1875 21.89 16.123 21.9399C15.8867 21.9512 15.6484 21.9612 15.4121 21.97L15.2168 21.976C14.7246 21.99 14.1543 21.9969 13.0293 21.999L12.2832 22L10.9727 22C10.2441 22.0026 9.51367 21.9949 8.78516 21.9771L8.58984 21.9709C8.35352 21.962 8.11523 21.9517 7.87891 21.9399C6.81445 21.89 6.08789 21.722 5.45117 21.475C4.7832 21.2244 4.17969 20.8308 3.67969 20.322C3.16992 19.8223 2.77734 19.2175 2.52539 18.55C2.2793 17.913 2.11133 17.187 2.06055 16.1219C2.04883 15.8848 2.03906 15.6473 2.03125 15.41L2.02539 15.2159C2.00781 14.4868 1.99805 13.7574 2 13.028L2 10.972C1.99805 10.2426 2.00586 9.51318 2.02344 8.78406L2.0293 8.58997C2.03711 8.36499 2.04688 8.14404 2.06055 7.87805C2.10938 6.81299 2.27734 6.08801 2.52539 5.44995C2.77539 4.78186 3.16992 4.177 3.67969 3.67798C4.17969 3.16943 4.7832 2.776 5.45117 2.52502C6.08789 2.27795 6.81445 2.10999 7.87891 2.06006C8.14453 2.04797 8.36719 2.03796 8.58984 2.03003L8.78516 2.02405C9.51367 2.00623 10.2441 1.99854 10.9727 2.00098L13.0293 2ZM12 7C10.6738 7 9.40234 7.52673 8.46484 8.46448C7.52734 9.4021 7 10.674 7 12C7 13.326 7.52734 14.5979 8.46484 15.5355C9.40234 16.4733 10.6738 17 12 17C13.3262 17 14.5977 16.4733 15.5352 15.5355C16.4746 14.5979 17 13.326 17 12C17 10.674 16.4746 9.4021 15.5352 8.46448C14.5977 7.52673 13.3262 7 12 7ZM12 9C12.3945 8.99988 12.7852 9.07751 13.1484 9.22815C13.5117 9.37891 13.8438 9.59985 14.1211 9.8783C14.4004 10.1569 14.6211 10.4875 14.7734 10.8514C14.9238 11.2155 15.002 11.6056 15.002 11.9995C15.002 12.3934 14.9238 12.7836 14.7734 13.1476C14.623 13.5116 14.4004 13.8423 14.123 14.121C13.8438 14.3995 13.5137 14.6206 13.1504 14.7715C12.7852 14.9222 12.3965 14.9999 12.002 15C11.2051 15 10.4434 14.684 9.88086 14.1213C9.31836 13.5587 9.00195 12.7957 9.00195 12C9.00195 11.2043 9.31836 10.4413 9.88086 9.87866C10.4434 9.31604 11.2051 9 12.002 9L12 9ZM17.252 5.5C16.9199 5.5 16.6016 5.63171 16.3672 5.86609C16.1328 6.10059 16.002 6.41846 16.002 6.75C16.002 7.08154 16.1328 7.39941 16.3672 7.63391C16.6016 7.86829 16.9199 8 17.252 8C17.584 8 17.9004 7.86829 18.1348 7.63391C18.3691 7.39941 18.502 7.08154 18.502 6.75C18.502 6.41846 18.3691 6.10059 18.1348 5.86609C17.9004 5.63171 17.584 5.5 17.252 5.5Z" fill="#FFFFFF" fill-opacity="1.000000" fill-rule="nonzero"/>
	</g>
</svg>
