<svg width="24.000000" height="24.000000" viewBox="0 0 24 24" fill="none" xmlns="http://www.w3.org/2000/svg" xmlns:xlink="http://www.w3.org/1999/xlink">
	<desc>
			Created with Pixso.
	</desc>
	<defs>
		<clipPath id="clip15_335">
			<rect id="ic:baseline-telegram" width="24.000000" height="24.000000" fill="white" fill-opacity="0"/>
		</clipPath>
	</defs>
	<rect id="ic:baseline-telegram" width="24.000000" height="24.000000" fill="#FFFFFF" fill-opacity="0"/>
	<g clip-path="url(#clip15_335)">
		<path id="Vector" d="M12 2C6.48047 2 2 6.47998 2 12C2 17.52 6.48047 22 12 22C17.5195 22 22 17.52 22 12C22 6.47998 17.5195 2 12 2ZM16.6406 8.80005C16.4902 10.38 15.8398 14.22 15.5098 15.99C15.3691 16.74 15.0898 16.99 14.8301 17.02C14.25 17.0699 13.8105 16.64 13.25 16.27C12.3691 15.6899 11.8691 15.33 11.0195 14.77C10.0293 14.12 10.6699 13.76 11.2402 13.1801C11.3906 13.03 13.9492 10.7 14 10.49C14.0078 10.4583 14.0059 10.4252 13.998 10.3938C13.9883 10.3624 13.9727 10.3336 13.9492 10.3101C13.8906 10.26 13.8105 10.28 13.7402 10.29C13.6504 10.3101 12.25 11.24 9.51953 13.08C9.11914 13.35 8.75977 13.49 8.43945 13.48C8.08008 13.47 7.40039 13.28 6.89062 13.11C6.25977 12.91 5.76953 12.8 5.81055 12.45C5.83008 12.27 6.08008 12.09 6.55078 11.9C9.4707 10.63 11.4102 9.79004 12.3809 9.39001C15.1602 8.22998 15.7305 8.03003 16.1094 8.03003C16.1895 8.03003 16.3809 8.05005 16.5 8.15002C16.5996 8.22998 16.6309 8.33997 16.6406 8.42004C16.6309 8.47998 16.6504 8.66003 16.6406 8.80005Z" fill="#FFFFFF" fill-opacity="1.000000" fill-rule="nonzero"/>
	</g>
</svg>
