<svg width="24.000000" height="24.000000" viewBox="0 0 24 24" fill="none" xmlns="http://www.w3.org/2000/svg" xmlns:xlink="http://www.w3.org/1999/xlink">
	<desc>
			Created with Pixso.
	</desc>
	<defs>
		<clipPath id="clip15_337">
			<rect id="ri:whatsapp-fill" width="24.000000" height="24.000000" fill="white" fill-opacity="0"/>
		</clipPath>
	</defs>
	<rect id="ri:whatsapp-fill" width="24.000000" height="24.000000" fill="#FFFFFF" fill-opacity="0"/>
	<g clip-path="url(#clip15_337)">
		<path id="Vector" d="M12.002 2C17.5254 2 22.002 6.47705 22.002 12C22.002 17.5229 17.5254 22 12.002 22C10.2344 22.0028 8.49805 21.5352 6.97266 20.645L2.00586 22L3.35742 17.032C2.4668 15.5049 1.99805 13.7679 2.00195 12C2.00195 6.47705 6.47852 2 12.002 2ZM8.59375 7.30005L8.39453 7.30798C8.26367 7.31592 8.13867 7.34985 8.02148 7.40796C7.91406 7.46948 7.81445 7.54626 7.72852 7.63599C7.60742 7.74902 7.53906 7.84705 7.4668 7.94202C7.09766 8.42285 6.89844 9.01331 6.90039 9.62C6.90234 10.11 7.03125 10.587 7.23047 11.033C7.64062 11.9351 8.3125 12.89 9.20117 13.775C9.41406 13.988 9.625 14.202 9.85156 14.401C10.9551 15.3724 12.2695 16.073 13.6914 16.447L14.2598 16.5341C14.4434 16.5439 14.6289 16.53 14.8145 16.521C15.1055 16.506 15.3906 16.4271 15.6484 16.29C15.7793 16.2225 15.9062 16.1492 16.0312 16.0699C16.0312 16.0699 16.0742 16.042 16.1562 15.98C16.291 15.88 16.373 15.809 16.4863 15.692C16.5684 15.606 16.6406 15.505 16.6953 15.39C16.7734 15.2271 16.8516 14.916 16.8848 14.657C16.9082 14.459 16.9004 14.351 16.8984 14.2841C16.8945 14.177 16.8047 14.066 16.707 14.019L16.125 13.7581C16.125 13.7581 15.2559 13.379 14.7246 13.137C14.668 13.1127 14.6094 13.0988 14.5488 13.0959C14.4805 13.089 14.4102 13.0967 14.3457 13.1185C14.2793 13.1405 14.2207 13.176 14.1699 13.223C14.1641 13.2209 14.0977 13.278 13.375 14.1541C13.334 14.2097 13.2754 14.252 13.2109 14.275C13.1445 14.2982 13.0742 14.3013 13.0078 14.2841C12.9414 14.2665 12.8789 14.2445 12.8164 14.218C12.6914 14.166 12.6484 14.146 12.5645 14.11C11.9902 13.8595 11.459 13.5211 10.9883 13.1071C10.8633 12.9969 10.7461 12.877 10.625 12.761C10.2324 12.3843 9.89062 11.958 9.60547 11.493L9.54688 11.3979C9.50391 11.3341 9.4707 11.2653 9.44531 11.193C9.40625 11.046 9.50586 10.928 9.50586 10.928C9.50586 10.928 9.74805 10.662 9.86133 10.5179C9.97266 10.3781 10.0645 10.2419 10.125 10.145C10.2422 9.95496 10.2793 9.76001 10.2188 9.60901C9.9375 8.92505 9.64844 8.24402 9.34961 7.56799C9.29102 7.43396 9.11523 7.33801 8.95703 7.31897C8.90234 7.31299 8.84961 7.30701 8.79492 7.30298C8.66016 7.29639 8.52539 7.29761 8.39258 7.30701L8.59375 7.30005Z" fill="#FFFFFF" fill-opacity="1.000000" fill-rule="nonzero"/>
	</g>
</svg>
