<svg width="586.000000" height="586.000000" viewBox="0 0 586 586" fill="none" xmlns="http://www.w3.org/2000/svg" xmlns:xlink="http://www.w3.org/1999/xlink">
	<desc>
			Created with Pixso.
	</desc>
	<defs/>
	<path id="Soft Star" d="M291.645 219.778C291.906 217.407 295.094 217.407 295.355 219.778L297.541 239.665C300.365 265.345 319.127 285.592 342.924 288.639L361.352 290.999C363.549 291.28 363.549 294.72 361.352 295.001L342.924 297.361C319.127 300.408 300.365 320.655 297.541 346.335L295.355 366.222C295.094 368.593 291.906 368.593 291.645 366.222L289.459 346.335C286.635 320.655 267.873 300.408 244.076 297.361L225.648 295.001C223.451 294.72 223.451 291.28 225.648 290.999L244.076 288.639C267.873 285.592 286.635 265.345 289.459 239.665L291.645 219.778Z" fill="#BE702D" fill-opacity="1.000000" fill-rule="nonzero"/>
	<circle id="Ellipse 7" cx="293.000000" cy="293.000000" r="292.500000" stroke="#FFFFFF" stroke-opacity="0.500000" stroke-width="1.000000"/>
	<path id="H" d="M302.597 531.755L292.608 531.617L292.474 541.336L290.554 541.31L290.848 520.042L292.768 520.068L292.632 529.877L302.621 530.016L302.757 520.207L304.677 520.233L304.383 541.501L302.463 541.475L302.597 531.755Z" fill="#FFFFFF" fill-opacity="1.000000" fill-rule="evenodd"/>
	<path id="U" d="M252.645 538.323L255.78 523.992C255.929 523.308 255.943 522.636 255.822 521.974C255.676 521.328 255.426 520.741 255.071 520.213C254.715 519.685 254.272 519.23 253.742 518.848C253.207 518.485 252.627 518.235 252.002 518.099C251.337 517.953 250.684 517.944 250.043 518.069C249.401 518.195 248.818 518.426 248.294 518.762C247.751 519.093 247.288 519.524 246.906 520.055C246.524 520.586 246.258 521.193 246.108 521.877L242.974 536.208L241.069 535.791L244.203 521.46C244.404 520.542 244.77 519.711 245.301 518.967C245.828 518.243 246.471 517.646 247.228 517.177C247.966 516.704 248.784 516.382 249.682 516.209C250.56 516.033 251.468 516.047 252.405 516.252C253.324 516.453 254.157 516.809 254.905 517.321C255.649 517.852 256.257 518.487 256.73 519.225C257.203 519.963 257.528 520.771 257.705 521.649C257.877 522.547 257.86 523.464 257.655 524.402L254.521 538.734L252.645 538.323Z" fill="#FFFFFF" fill-opacity="1.000000" fill-rule="evenodd"/>
	<path id="B" d="M201.888 524.025C201.207 523.735 200.622 523.322 200.132 522.787C199.635 522.271 199.264 521.688 199.018 521.04C198.755 520.384 198.623 519.698 198.625 518.981C198.618 518.282 198.756 517.602 199.039 516.94C199.58 515.67 200.776 514.625 202.626 513.805C202.27 513.262 202.004 512.714 201.827 512.16C201.624 511.617 201.497 511.074 201.446 510.53C201.395 509.987 201.412 509.461 201.498 508.954C201.558 508.458 201.678 507.998 201.858 507.575C202.195 506.784 202.669 506.105 203.28 505.54C203.873 504.966 204.54 504.522 205.283 504.209C206.018 503.913 206.801 503.758 207.634 503.743C208.458 503.747 209.266 503.918 210.057 504.255L214.914 506.326L206.524 526.002L201.888 524.025ZM208.947 515.425L212.395 507.339L209.387 506.057C208.835 505.821 208.277 505.703 207.712 505.701C207.129 505.692 206.579 505.783 206.062 505.976C205.537 506.187 205.068 506.498 204.654 506.908C204.221 507.311 203.879 507.806 203.628 508.395C203.393 508.947 203.283 509.509 203.3 510.082C203.291 510.665 203.392 511.219 203.603 511.743C203.795 512.26 204.097 512.726 204.507 513.14C204.91 513.573 205.387 513.907 205.939 514.142L208.947 515.425ZM205.511 523.483L208.311 516.915L205.485 515.742C205.062 515.562 204.622 515.472 204.165 515.473C203.689 515.466 203.242 515.547 202.822 515.716C202.384 515.876 201.986 516.12 201.63 516.446C201.273 516.773 200.997 517.166 200.801 517.626C200.612 518.067 200.528 518.52 200.547 518.985C200.54 519.461 200.63 519.912 200.817 520.34C200.986 520.76 201.238 521.139 201.572 521.477C201.88 521.826 202.254 522.094 202.696 522.282L205.511 523.483Z" fill="#FFFFFF" fill-opacity="1.000000" fill-rule="evenodd"/>
	<path id="B" d="M163.247 504.722C162.627 504.319 162.122 503.811 161.733 503.2C161.333 502.605 161.068 501.967 160.938 501.286C160.792 500.594 160.782 499.895 160.907 499.189C161.022 498.5 161.275 497.854 161.668 497.251C162.421 496.094 163.779 495.272 165.743 494.785C165.487 494.189 165.32 493.602 165.242 493.026C165.136 492.456 165.105 491.899 165.149 491.355C165.193 490.811 165.301 490.296 165.473 489.812C165.617 489.333 165.815 488.901 166.066 488.516C166.535 487.795 167.12 487.209 167.819 486.757C168.502 486.295 169.237 485.974 170.022 485.793C170.797 485.629 171.596 485.612 172.418 485.742C173.23 485.889 173.996 486.196 174.717 486.666L179.141 489.546L167.471 507.472L163.247 504.722ZM171.689 497.474L176.485 490.108L173.744 488.324C173.242 487.996 172.712 487.783 172.156 487.684C171.584 487.574 171.026 487.569 170.484 487.669C169.93 487.786 169.414 488.01 168.935 488.343C168.439 488.665 168.017 489.094 167.668 489.63C167.34 490.133 167.135 490.667 167.053 491.234C166.942 491.807 166.946 492.37 167.063 492.923C167.163 493.466 167.379 493.977 167.712 494.456C168.034 494.951 168.446 495.363 168.949 495.69L171.689 497.474ZM166.91 504.816L170.805 498.832L168.224 497.188C167.839 496.937 167.421 496.772 166.971 496.694C166.504 496.604 166.049 496.607 165.606 496.7C165.147 496.783 164.713 496.954 164.305 497.214C163.898 497.473 163.557 497.813 163.285 498.232C163.023 498.634 162.861 499.066 162.8 499.527C162.71 499.994 162.721 500.454 162.831 500.908C162.925 501.35 163.107 501.767 163.377 502.158C163.62 502.555 163.943 502.884 164.345 503.146L166.91 504.816Z" fill="#FFFFFF" fill-opacity="1.000000" fill-rule="evenodd"/>
	<path id="L" d="M131.122 481.325L144.157 467.105L138.761 462.159L140.099 460.699L146.911 466.943L132.538 482.622L131.122 481.325Z" fill="#FFFFFF" fill-opacity="1.000000" fill-rule="evenodd"/>
	<path id="E" d="M100.168 446.35L105.03 452.564L111.244 447.701L106.493 441.629L107.792 440.613L112.543 446.685L118.781 441.804L113.346 434.858L114.905 433.638L121.505 442.072L104.659 455.254L98.6322 447.552L100.168 446.35Z" fill="#FFFFFF" fill-opacity="1.000000" fill-rule="evenodd"/>
	<path id=" " d="" fill="#FFFFFF" fill-opacity="1.000000" fill-rule="evenodd"/>
	<path id="-" d="M86.6123 404.825L84.5677 400.816L86.0643 400.053L88.1089 404.061L86.6123 404.825Z" fill="#FFFFFF" fill-opacity="1.000000" fill-rule="evenodd"/>
	<path id=" " d="" fill="#FFFFFF" fill-opacity="1.000000" fill-rule="evenodd"/>
	<path id="H" d="M66.2027 367.795L63.5809 358.155L54.2016 360.706L53.6977 358.854L74.2221 353.271L74.726 355.124L65.2599 357.699L67.8817 367.338L77.3479 364.764L77.8518 366.616L57.3274 372.199L56.8235 370.346L66.2027 367.795Z" fill="#FFFFFF" fill-opacity="1.000000" fill-rule="evenodd"/>
	<path id="U" d="M46.1153 321.591L60.7552 320.651C61.4538 320.607 62.1041 320.435 62.7062 320.135C63.287 319.818 63.7822 319.415 64.1919 318.928C64.6015 318.441 64.9169 317.889 65.138 317.274C65.3391 316.66 65.4191 316.033 65.3781 315.395C65.3346 314.716 65.1639 314.086 64.866 313.504C64.5681 312.921 64.1856 312.425 63.7183 312.014C63.2498 311.583 62.7078 311.257 62.0924 311.036C61.4769 310.815 60.82 310.727 60.1214 310.772L45.4815 311.711L45.3567 309.765L59.9966 308.826C60.9346 308.766 61.8343 308.888 62.6956 309.194C63.537 309.5 64.2875 309.953 64.9473 310.552C65.6057 311.131 66.1414 311.829 66.5544 312.644C66.9662 313.439 67.2028 314.316 67.2643 315.274C67.3244 316.212 67.2118 317.111 66.9262 317.971C66.6208 318.832 66.1785 319.592 65.5995 320.25C65.0204 320.909 64.3333 321.444 63.538 321.856C62.7228 322.269 61.8361 322.506 60.8781 322.568L46.2382 323.507L46.1153 321.591Z" fill="#FFFFFF" fill-opacity="1.000000" fill-rule="evenodd"/>
	<path id="B" d="M45.8614 268.857C45.9527 268.123 46.1879 267.447 46.5671 266.829C46.9264 266.209 47.3837 265.691 47.9391 265.276C48.497 264.842 49.1207 264.526 49.8102 264.33C50.4798 264.131 51.1719 264.076 51.8864 264.165C53.2559 264.335 54.5898 265.196 55.8882 266.748C56.3121 266.257 56.7658 265.85 57.2493 265.527C57.7155 265.182 58.2028 264.91 58.7112 264.711C59.2196 264.512 59.7293 264.384 60.2403 264.327C60.7339 264.247 61.2089 264.236 61.6654 264.292C62.5188 264.399 63.3017 264.667 64.0139 265.098C64.7286 265.51 65.3392 266.029 65.8457 266.656C66.3323 267.281 66.6975 267.992 66.9411 268.788C67.1649 269.581 67.2237 270.405 67.1176 271.258L66.4662 276.498L45.2396 273.859L45.8614 268.857ZM56.0749 273.271L64.7977 274.356L65.2012 271.111C65.2752 270.515 65.2351 269.946 65.081 269.403C64.9293 268.84 64.6896 268.336 64.3618 267.893C64.0142 267.446 63.5861 267.081 63.0773 266.796C62.5711 266.491 62.0004 266.299 61.3653 266.22C60.7699 266.146 60.1993 266.196 59.6537 266.37C59.0907 266.522 58.586 266.771 58.1397 267.119C57.6959 267.447 57.3315 267.865 57.0466 268.374C56.7418 268.88 56.5524 269.431 56.4783 270.026L56.0749 273.271ZM47.3818 272.19L54.4673 273.071L54.815 270.031C54.8718 269.575 54.8368 269.127 54.71 268.688C54.5856 268.229 54.3844 267.821 54.1063 267.464C53.8307 267.087 53.4869 266.772 53.075 266.52C52.663 266.267 52.209 266.11 51.7128 266.048C51.2364 265.989 50.7775 266.032 50.3361 266.179C49.8772 266.303 49.468 266.514 49.1085 266.812C48.7515 267.091 48.4565 267.437 48.2236 267.851C47.9733 268.243 47.8186 268.678 47.7594 269.154L47.3818 272.19Z" fill="#FFFFFF" fill-opacity="1.000000" fill-rule="evenodd"/>
	<path id="B" d="M53.7601 226.395C53.9772 225.687 54.3259 225.062 54.8063 224.519C55.2676 223.97 55.8077 223.54 56.4265 223.227C57.0511 222.896 57.72 222.693 58.4331 222.619C59.1271 222.539 59.8183 222.605 60.5066 222.816C61.8259 223.221 62.9906 224.3 64.0007 226.054C64.5032 225.643 65.0206 225.32 65.5527 225.086C66.0715 224.827 66.5986 224.644 67.1337 224.536C67.6689 224.428 68.193 224.39 68.7062 224.422C69.2062 224.429 69.676 224.5 70.1158 224.635C70.938 224.887 71.6625 225.287 72.2893 225.835C72.922 226.364 73.4335 226.981 73.8237 227.687C74.1948 228.386 74.4314 229.149 74.5335 229.976C74.6165 230.796 74.5319 231.617 74.2796 232.44L72.7308 237.487L52.2817 231.213L53.7601 226.395ZM63.0551 232.51L71.4585 235.089L72.4177 231.962C72.5937 231.389 72.6528 230.821 72.595 230.26C72.5431 229.679 72.3941 229.141 72.1482 228.648C71.8831 228.148 71.5247 227.714 71.073 227.345C70.6271 226.957 70.0983 226.669 69.4865 226.482C68.9128 226.306 68.3423 226.256 67.7748 226.333C67.194 226.385 66.6537 226.543 66.154 226.808C65.6601 227.054 65.2288 227.403 64.8601 227.855C64.4722 228.301 64.1903 228.81 64.0143 229.384L63.0551 232.51ZM54.6805 229.941L61.5064 232.035L62.3753 229.101C62.5102 228.661 62.5533 228.214 62.5044 227.76C62.4614 227.286 62.3338 226.85 62.1218 226.45C61.9156 226.031 61.6315 225.661 61.2695 225.341C60.9076 225.021 60.4876 224.787 60.0096 224.641C59.5507 224.5 59.0911 224.463 58.6309 224.531C58.1575 224.574 57.7179 224.712 57.3123 224.943C56.9125 225.155 56.562 225.445 56.2609 225.813C55.9465 226.155 55.7189 226.556 55.5781 227.015L54.6805 229.941Z" fill="#FFFFFF" fill-opacity="1.000000" fill-rule="evenodd"/>
	<path id="L" d="M67.3907 189.062L84.6535 197.67L87.92 191.12L89.6919 192.003L85.5686 200.272L66.5339 190.78L67.3907 189.062Z" fill="#FFFFFF" fill-opacity="1.000000" fill-rule="evenodd"/>
	<path id="E" d="M92.4716 149.662L87.8397 156.049L94.2269 160.681L98.7532 154.439L100.089 155.408L95.5627 161.65L101.974 166.299L107.152 159.159L108.755 160.322L102.468 168.992L85.1515 156.434L90.8931 148.517L92.4716 149.662Z" fill="#FFFFFF" fill-opacity="1.000000" fill-rule="evenodd"/>
	<path id=" " d="" fill="#FFFFFF" fill-opacity="1.000000" fill-rule="evenodd"/>
	<path id="-" d="M128.649 125.181L131.939 122.11L133.085 123.338L129.796 126.409L128.649 125.181Z" fill="#FFFFFF" fill-opacity="1.000000" fill-rule="evenodd"/>
	<path id=" " d="" fill="#FFFFFF" fill-opacity="1.000000" fill-rule="evenodd"/>
	<path id="H" d="M158.614 95.3516L167.157 90.173L162.118 81.861L163.76 80.8657L174.786 99.0547L173.144 100.05L168.059 91.661L159.516 96.8396L164.601 105.229L162.959 106.224L151.933 88.0348L153.575 87.0396L158.614 95.3516Z" fill="#FFFFFF" fill-opacity="1.000000" fill-rule="evenodd"/>
	<path id="U" d="M197.489 63.2998L202.429 77.113C202.664 77.7721 203.009 78.3498 203.463 78.846C203.928 79.3167 204.452 79.6817 205.033 79.9411C205.614 80.2005 206.231 80.3516 206.884 80.3944C207.53 80.4183 208.154 80.3225 208.756 80.107C209.397 79.878 209.956 79.5401 210.433 79.0932C210.91 78.6463 211.282 78.1417 211.548 77.5792C211.833 77.01 211.997 76.3992 212.04 75.7466C212.083 75.0941 211.986 74.4383 211.75 73.7792L206.81 59.966L208.646 59.3093L213.587 73.1225C213.903 74.0076 214.033 74.9063 213.977 75.8185C213.914 76.7118 213.686 77.5581 213.292 78.3574C212.917 79.15 212.395 79.8572 211.725 80.479C211.074 81.0941 210.297 81.5633 209.393 81.8866C208.508 82.2031 207.613 82.3428 206.707 82.3055C205.795 82.2494 204.943 82.0338 204.15 81.6588C203.357 81.2838 202.654 80.7709 202.038 80.12C201.417 79.4503 200.944 78.6635 200.621 77.7595L195.681 63.9463L197.489 63.2998Z" fill="#FFFFFF" fill-opacity="1.000000" fill-rule="evenodd"/>
	<path id="B" d="M248.106 48.5139C248.837 48.3991 249.552 48.4388 250.25 48.6328C250.946 48.8071 251.569 49.104 252.121 49.5235C252.693 49.9399 253.168 50.4524 253.547 51.061C253.923 51.6498 254.166 52.2999 254.278 53.0112C254.492 54.3745 254.032 55.8942 252.898 57.5703C253.488 57.8422 254.004 58.166 254.448 58.5418C254.908 58.8947 255.304 59.288 255.635 59.7219C255.966 60.1558 256.23 60.6104 256.426 61.0857C256.639 61.5382 256.781 61.9917 256.852 62.4461C256.986 63.2957 256.943 64.1223 256.725 64.9258C256.527 65.7262 256.196 66.4564 255.733 67.1162C255.267 67.7563 254.684 68.3032 253.986 68.7569C253.285 69.1909 252.51 69.4746 251.66 69.6079L246.444 70.4267L243.127 49.2955L248.106 48.5139ZM246.68 59.5485L248.043 68.2322L251.273 67.7251C251.866 67.6321 252.402 67.4366 252.882 67.1386C253.381 66.8375 253.799 66.4682 254.135 66.0308C254.468 65.5736 254.702 65.0612 254.835 64.4937C254.989 63.923 255.016 63.3215 254.917 62.6892C254.824 62.0965 254.618 61.5619 254.3 61.0854C253.999 60.586 253.62 60.1698 253.163 59.8367C252.726 59.5004 252.223 59.2655 251.656 59.1319C251.085 58.9785 250.503 58.9484 249.91 59.0414L246.68 59.5485ZM245.322 50.8945L246.429 57.9481L249.447 57.444C249.901 57.3726 250.322 57.2155 250.709 56.9725C251.116 56.7265 251.453 56.4206 251.719 56.0548C252.005 55.686 252.213 55.2687 252.343 54.803C252.472 54.3373 252.498 53.8575 252.42 53.3635C252.346 52.8893 252.177 52.4603 251.915 52.0764C251.668 51.6696 251.353 51.3345 250.967 51.0711C250.601 50.8046 250.187 50.6166 249.725 50.507C249.279 50.3745 248.819 50.3455 248.344 50.42L245.322 50.8945Z" fill="#FFFFFF" fill-opacity="1.000000" fill-rule="evenodd"/>
	<path id="B" d="M291.102 44.3958C291.842 44.4093 292.539 44.5721 293.193 44.8842C293.848 45.1762 294.411 45.5766 294.882 46.0853C295.372 46.5944 295.752 47.1814 296.019 47.8464C296.288 48.4914 296.415 49.1739 296.402 49.8938C296.377 51.2735 295.661 52.6907 294.254 54.1451C294.787 54.515 295.24 54.9233 295.612 55.3702C296.004 55.7975 296.326 56.2534 296.577 56.7381C296.828 57.2228 297.009 57.7162 297.12 58.2183C297.251 58.7008 297.312 59.172 297.304 59.6319C297.288 60.4918 297.103 61.2985 296.749 62.0522C296.415 62.8062 295.963 63.468 295.393 64.0377C294.823 64.5873 294.154 65.0251 293.388 65.3512C292.623 65.6572 291.81 65.8023 290.95 65.7866L285.671 65.6899L286.063 44.3035L291.102 44.3958ZM287.787 55.0168L287.626 63.8054L290.895 63.8652C291.495 63.8762 292.057 63.7765 292.581 63.5661C293.125 63.356 293.6 63.0647 294.007 62.6921C294.414 62.2994 294.733 61.8352 294.963 61.2993C295.213 60.7638 295.343 60.1761 295.355 59.5362C295.366 58.9363 295.256 58.3742 295.026 57.8499C294.816 57.306 294.515 56.8304 294.122 56.4231C293.749 56.0162 293.295 55.6978 292.759 55.468C292.224 55.2181 291.656 55.0877 291.056 55.0767L287.787 55.0168ZM287.947 46.2583L287.816 53.3971L290.876 53.4232C291.336 53.4316 291.778 53.3497 292.201 53.1774C292.644 53.0055 293.029 52.7625 293.355 52.4484C293.701 52.1347 293.977 51.7597 294.185 51.3234C294.393 50.8871 294.502 50.4191 294.511 49.9191C294.52 49.4392 294.428 48.9875 294.236 48.5639C294.064 48.1207 293.811 47.736 293.477 47.4098C293.163 47.084 292.788 46.8271 292.351 46.639C291.935 46.4314 291.487 46.3231 291.007 46.3143L287.947 46.2583Z" fill="#FFFFFF" fill-opacity="1.000000" fill-rule="evenodd"/>
	<path id="L" d="M330.744 47.2029L327.23 66.1702L334.427 67.5036L334.067 69.4505L324.981 67.7673L328.856 46.8532L330.744 47.2029Z" fill="#FFFFFF" fill-opacity="1.000000" fill-rule="evenodd"/>
	<path id="E" d="M375.534 60.4465L368.117 57.7556L365.426 65.1726L372.674 67.8021L372.111 69.3532L364.863 66.7236L362.162 74.1688L370.453 77.1769L369.778 79.0382L359.71 75.3855L367.005 55.2779L376.199 58.6134L375.534 60.4465Z" fill="#FFFFFF" fill-opacity="1.000000" fill-rule="evenodd"/>
	<path id=" " d="" fill="#FFFFFF" fill-opacity="1.000000" fill-rule="evenodd"/>
	<path id="-" d="M409.041 88.4695L412.9 90.7846L412.036 92.2252L408.177 89.9101L409.041 88.4695Z" fill="#FFFFFF" fill-opacity="1.000000" fill-rule="evenodd"/>
	<path id=" " d="" fill="#FFFFFF" fill-opacity="1.000000" fill-rule="evenodd"/>
	<path id="H" d="M445.979 109.047L453.313 115.83L459.913 108.695L461.323 109.999L446.88 125.613L445.47 124.309L452.132 117.108L444.798 110.324L438.136 117.526L436.727 116.222L451.17 100.607L452.58 101.911L445.979 109.047Z" fill="#FFFFFF" fill-opacity="1.000000" fill-rule="evenodd"/>
	<path id="U" d="M487.508 137.573L475.593 146.131C475.024 146.539 474.564 147.03 474.212 147.603C473.888 148.18 473.682 148.784 473.593 149.414C473.504 150.045 473.529 150.679 473.667 151.318C473.823 151.946 474.087 152.519 474.46 153.039C474.857 153.591 475.336 154.035 475.897 154.371C476.458 154.707 477.046 154.925 477.66 155.026C478.285 155.143 478.918 155.132 479.557 154.993C480.196 154.854 480.8 154.58 481.368 154.172L493.283 145.614L494.421 147.198L482.506 155.756C481.742 156.304 480.914 156.677 480.022 156.875C479.146 157.061 478.27 157.075 477.393 156.917C476.527 156.775 475.704 156.468 474.921 155.995C474.15 155.539 473.485 154.921 472.925 154.142C472.377 153.378 471.996 152.556 471.782 151.676C471.584 150.783 471.556 149.905 471.698 149.039C471.84 148.174 472.139 147.356 472.595 146.585C473.067 145.803 473.693 145.132 474.473 144.572L486.388 136.014L487.508 137.573Z" fill="#FFFFFF" fill-opacity="1.000000" fill-rule="evenodd"/>
	<path id="B" d="M515.679 182.151C515.991 182.822 516.15 183.52 516.156 184.245C516.18 184.961 516.067 185.643 515.816 186.289C515.573 186.953 515.211 187.551 514.731 188.083C514.268 188.607 513.711 189.02 513.058 189.324C511.807 189.905 510.219 189.883 508.295 189.255C508.196 189.896 508.027 190.482 507.789 191.012C507.576 191.552 507.307 192.041 506.982 192.479C506.656 192.917 506.292 193.296 505.889 193.615C505.513 193.945 505.116 194.206 504.699 194.4C503.919 194.763 503.113 194.95 502.28 194.962C501.456 194.992 500.663 194.875 499.901 194.612C499.157 194.34 498.471 193.931 497.842 193.386C497.232 192.831 496.745 192.164 496.383 191.384L494.157 186.596L513.554 177.58L515.679 182.151ZM504.679 183.823L496.708 187.528L498.086 190.493C498.339 191.038 498.675 191.499 499.093 191.878C499.52 192.275 499.991 192.575 500.504 192.777C501.035 192.971 501.592 193.054 502.174 193.026C502.765 193.016 503.351 192.876 503.931 192.607C504.475 192.354 504.933 192.009 505.303 191.572C505.7 191.145 505.995 190.666 506.19 190.134C506.392 189.621 506.479 189.073 506.451 188.491C506.441 187.9 506.31 187.333 506.057 186.788L504.679 183.823ZM512.623 180.131L506.148 183.14L507.465 185.903C507.659 186.32 507.926 186.681 508.266 186.986C508.615 187.309 509.002 187.548 509.427 187.703C509.86 187.877 510.319 187.962 510.802 187.957C511.285 187.953 511.753 187.846 512.207 187.635C512.642 187.433 513.008 187.153 513.305 186.794C513.628 186.445 513.863 186.049 514.01 185.606C514.165 185.181 514.232 184.731 514.209 184.256C514.214 183.791 514.115 183.341 513.912 182.906L512.623 180.131Z" fill="#FFFFFF" fill-opacity="1.000000" fill-rule="evenodd"/>
	<path id="B" d="M531.493 222.342C531.684 223.057 531.72 223.772 531.601 224.487C531.5 225.197 531.271 225.849 530.912 226.442C530.558 227.054 530.098 227.58 529.533 228.021C528.987 228.457 528.366 228.767 527.67 228.953C526.337 229.31 524.777 229.012 522.991 228.061C522.783 228.675 522.515 229.223 522.188 229.704C521.886 230.199 521.536 230.634 521.139 231.009C520.743 231.384 520.318 231.694 519.866 231.939C519.439 232.198 519.003 232.387 518.558 232.506C517.727 232.728 516.901 232.772 516.079 232.64C515.262 232.527 514.501 232.275 513.796 231.884C513.111 231.487 512.506 230.966 511.981 230.319C511.476 229.668 511.112 228.926 510.89 228.096L509.527 222.994L530.192 217.473L531.493 222.342ZM520.37 222.085L511.878 224.354L512.722 227.513C512.877 228.093 513.128 228.605 513.474 229.051C513.826 229.516 514.237 229.892 514.708 230.181C515.197 230.464 515.732 230.642 516.31 230.715C516.894 230.808 517.495 230.771 518.113 230.606C518.693 230.451 519.203 230.191 519.643 229.825C520.108 229.473 520.482 229.052 520.765 228.562C521.054 228.092 521.234 227.568 521.308 226.989C521.4 226.405 521.369 225.824 521.214 225.244L520.37 222.085ZM528.833 219.824L521.935 221.667L522.754 224.615C522.873 225.06 523.073 225.462 523.355 225.821C523.643 226.2 523.983 226.502 524.374 226.729C524.771 226.975 525.208 227.137 525.685 227.217C526.161 227.297 526.641 227.272 527.124 227.143C527.588 227.019 527.997 226.806 528.351 226.505C528.73 226.217 529.03 225.868 529.251 225.457C529.478 225.065 529.621 224.633 529.682 224.162C529.766 223.704 529.747 223.244 529.623 222.78L528.833 219.824Z" fill="#FFFFFF" fill-opacity="1.000000" fill-rule="evenodd"/>
	<path id="L" d="M539.729 261.224L520.528 263.077L521.231 270.363L519.26 270.553L518.372 261.356L539.544 259.312L539.729 261.224Z" fill="#FFFFFF" fill-opacity="1.000000" fill-rule="evenodd"/>
	<path id="E" d="M539.349 307.928L539.89 300.057L532.019 299.516L531.49 307.208L529.844 307.094L530.373 299.403L522.472 298.859L521.867 307.659L519.891 307.523L520.626 296.838L541.965 298.305L541.295 308.062L539.349 307.928Z" fill="#FFFFFF" fill-opacity="1.000000" fill-rule="evenodd"/>
	<path id=" " d="" fill="#FFFFFF" fill-opacity="1.000000" fill-rule="evenodd"/>
	<path id="-" d="M521.656 347.865L520.495 352.212L518.871 351.779L520.033 347.431L521.656 347.865Z" fill="#FFFFFF" fill-opacity="1.000000" fill-rule="evenodd"/>
	<path id=" " d="" fill="#FFFFFF" fill-opacity="1.000000" fill-rule="evenodd"/>
	<path id="H" d="M512.063 389.044L507.565 397.964L516.244 402.34L515.379 404.054L496.387 394.477L497.252 392.763L506.011 397.18L510.509 388.26L501.75 383.843L502.615 382.129L521.606 391.706L520.742 393.42L512.063 389.044Z" fill="#FFFFFF" fill-opacity="1.000000" fill-rule="evenodd"/>
	<path id="U" d="M496.093 436.829L484.581 427.736C484.032 427.302 483.434 426.995 482.786 426.815C482.141 426.663 481.504 426.631 480.874 426.719C480.243 426.807 479.64 427.006 479.064 427.316C478.504 427.638 478.025 428.05 477.629 428.552C477.207 429.086 476.913 429.669 476.745 430.301C476.577 430.933 476.529 431.558 476.602 432.176C476.662 432.809 476.847 433.414 477.156 433.99C477.466 434.566 477.896 435.071 478.445 435.505L489.957 444.598L488.748 446.128L477.236 437.035C476.499 436.452 475.912 435.759 475.476 434.956C475.055 434.165 474.8 433.327 474.71 432.44C474.608 431.569 474.676 430.693 474.914 429.811C475.14 428.944 475.551 428.134 476.146 427.381C476.728 426.643 477.413 426.05 478.201 425.602C479.004 425.165 479.841 424.896 480.712 424.794C481.583 424.692 482.451 424.754 483.318 424.979C484.2 425.218 485.018 425.634 485.771 426.229L497.283 435.323L496.093 436.829Z" fill="#FFFFFF" fill-opacity="1.000000" fill-rule="evenodd"/>
	<path id="B" d="M461.015 476.202C460.456 476.687 459.828 477.032 459.133 477.238C458.451 477.459 457.765 477.538 457.075 477.475C456.37 477.425 455.695 477.242 455.051 476.927C454.42 476.627 453.869 476.205 453.397 475.661C452.493 474.618 452.077 473.086 452.15 471.064C451.506 471.146 450.896 471.145 450.321 471.062C449.744 471.006 449.199 470.883 448.689 470.69C448.178 470.498 447.713 470.252 447.295 469.953C446.875 469.682 446.514 469.373 446.212 469.026C445.649 468.376 445.246 467.653 445.005 466.856C444.749 466.072 444.642 465.278 444.685 464.473C444.742 463.683 444.945 462.91 445.297 462.155C445.661 461.416 446.168 460.764 446.818 460.201L450.806 456.741L464.822 472.9L461.015 476.202ZM456.374 466.09L450.614 459.449L448.144 461.592C447.691 461.985 447.34 462.435 447.091 462.942C446.827 463.462 446.669 463.997 446.616 464.546C446.575 465.11 446.649 465.668 446.837 466.22C447.009 466.786 447.305 467.31 447.725 467.793C448.118 468.247 448.575 468.591 449.097 468.827C449.617 469.09 450.16 469.242 450.724 469.282C451.273 469.336 451.824 469.268 452.376 469.081C452.941 468.908 453.45 468.625 453.903 468.232L456.374 466.09ZM462.113 472.707L457.435 467.313L455.143 469.341C454.796 469.643 454.522 469.999 454.323 470.41C454.108 470.834 453.985 471.272 453.953 471.724C453.906 472.188 453.951 472.652 454.088 473.115C454.225 473.579 454.458 473.999 454.785 474.377C455.1 474.74 455.47 475.014 455.897 475.2C456.321 475.415 456.766 475.532 457.233 475.551C457.684 475.583 458.135 475.522 458.585 475.37C459.034 475.246 459.439 475.027 459.802 474.712L462.113 472.707Z" fill="#FFFFFF" fill-opacity="1.000000" fill-rule="evenodd"/>
	<path id="B" d="M426.743 502.487C426.109 502.868 425.431 503.1 424.711 503.182C424.001 503.282 423.312 503.24 422.643 503.059C421.957 502.887 421.324 502.591 420.744 502.169C420.175 501.764 419.705 501.253 419.334 500.636C418.624 499.452 418.48 497.871 418.902 495.892C418.254 495.861 417.654 495.755 417.101 495.573C416.542 495.419 416.028 495.203 415.558 494.925C415.088 494.647 414.673 494.325 414.313 493.958C413.946 493.618 413.644 493.251 413.407 492.857C412.965 492.119 412.694 491.337 412.594 490.511C412.477 489.694 412.51 488.893 412.692 488.108C412.884 487.34 413.218 486.614 413.695 485.932C414.182 485.266 414.794 484.712 415.531 484.27L420.059 481.553L431.065 499.894L426.743 502.487ZM423.923 491.724L419.4 484.187L416.597 485.87C416.082 486.178 415.658 486.561 415.326 487.017C414.976 487.484 414.727 487.983 414.58 488.514C414.443 489.063 414.419 489.626 414.508 490.202C414.58 490.788 414.781 491.356 415.11 491.905C415.419 492.419 415.81 492.838 416.283 493.16C416.75 493.51 417.257 493.753 417.806 493.891C418.338 494.038 418.892 494.067 419.468 493.978C420.054 493.906 420.605 493.716 421.119 493.407L423.923 491.724ZM428.431 499.236L424.757 493.113L422.148 494.714C421.754 494.95 421.423 495.254 421.155 495.624C420.871 496.005 420.674 496.415 420.564 496.854C420.437 497.303 420.401 497.768 420.456 498.248C420.511 498.728 420.667 499.183 420.924 499.612C421.171 500.023 421.488 500.358 421.876 500.615C422.257 500.9 422.675 501.092 423.131 501.191C423.57 501.301 424.025 501.32 424.495 501.248C424.958 501.203 425.395 501.057 425.807 500.81L428.431 499.236Z" fill="#FFFFFF" fill-opacity="1.000000" fill-rule="evenodd"/>
	<path id="L" d="M391.639 521.125L384.563 503.18L377.753 505.865L377.027 504.023L385.622 500.634L393.425 520.421L391.639 521.125Z" fill="#FFFFFF" fill-opacity="1.000000" fill-rule="evenodd"/>
	<path id="E" d="M346.641 533.641L354.356 531.991L352.706 524.275L345.166 525.888L344.821 524.275L352.361 522.662L350.704 514.917L342.079 516.762L341.665 514.826L352.138 512.586L356.612 533.502L347.049 535.548L346.641 533.641Z" fill="#FFFFFF" fill-opacity="1.000000" fill-rule="evenodd"/>
	<path id=" " d="" fill="#FFFFFF" fill-opacity="1.000000" fill-rule="evenodd"/>
	<path id="-" d="M303.373 527.645L298.873 527.728L298.842 526.049L303.342 525.966L303.373 527.645Z" fill="#FFFFFF" fill-opacity="1.000000" fill-rule="evenodd"/>
	<path id=" " d="" fill="#FFFFFF" fill-opacity="1.000000" fill-rule="evenodd"/>
</svg>
