              <svg
                width="180.000000"
                height="70.000000"
                viewBox="0 0 180 70"
                fill="none"
                xmlns="http://www.w3.org/2000/svg"
                xmlns:xlink="http://www.w3.org/1999/xlink"
              >
                <desc>Created with Pixso.</desc>
                <defs />
                <path
                  id="1990"
                  d="M166.229 2.07275C163.463 0.690918 160.412 0 157.08 0Q153.471 0 150.254 1.12671Q145.154 2.91406 141.047 7.53711C136.582 12.5618 134.35 21.7317 134.35 35.0471Q134.35 44.1858 136.047 50.7805C137.18 55.1772 138.75 58.8201 140.764 61.7092Q143.875 65.9487 148.025 68.0215C150.793 69.3406 153.811 70 157.08 70C163.369 70 168.713 67.4875 173.115 62.4629C177.705 57.4382 180 48.2998 180 35.0471Q180 25.9084 178.303 19.3135C177.17 14.8542 175.566 11.2114 173.492 8.38501C171.48 5.49585 169.059 3.3916 166.229 2.07275ZM5.4707 4.05127Q2.92383 5.84131 0 7.72534L0 12.0593Q1.50977 11.1172 3.20703 9.98657Q4.9043 8.85596 6.50781 7.72534Q8.20508 6.59497 9.71484 5.55859C10.7207 4.86768 11.6016 4.271 12.3555 3.76855L12.3555 69.623L18.4863 69.623L18.4863 0.376953L10.8477 0.376953Q8.11133 2.26099 5.4707 4.05127ZM56.9473 44.751L40.6289 69.0579L48.1758 69.0579L59.4941 51.9111C63.3301 46.1328 67.1328 40.3857 70.9062 34.6702C72.2266 32.8489 73.2012 30.9331 73.8301 28.9233C74.459 26.8506 74.7734 24.7466 74.7734 22.6111C74.7734 19.5962 74.1445 16.7385 72.8867 14.0376Q71.918 11.8472 70.5352 9.95972Q69.3613 8.35645 67.8887 6.97168Q67.4336 6.54443 66.957 6.1416Q64.0801 3.70312 60.4375 2.16699Q59.918 1.94312 59.3887 1.74731L59.3672 1.7395L59.3672 1.73926Q55.6738 0.376953 51.4766 0.376953C48.2695 0.376953 45.252 0.973633 42.4219 2.16699Q38.7793 3.70288 35.9023 6.14087L35.9004 6.1416Q35.4258 6.54443 34.9707 6.97168Q34.1348 7.78125 33.3867 8.66553Q31.3516 11.0745 29.9707 14.0376C28.7773 16.7385 28.1797 19.5962 28.1797 22.6111C28.1797 25.6257 28.7773 28.4836 29.9707 31.1843C31.166 33.8223 32.8008 36.1777 34.877 38.2502C37.0137 40.2603 39.498 41.8618 42.3281 43.0552C45.1562 44.1858 48.207 44.751 51.4766 44.751L56.9473 44.751ZM93.291 69.0579L109.607 44.751L104.137 44.751C100.867 44.751 97.8184 44.1858 94.9883 43.0552C92.1582 41.8618 89.6738 40.2603 87.5371 38.2502C85.4609 36.1777 83.8262 33.8223 82.6328 31.1843Q81.9512 29.6467 81.5293 28.0413Q80.8398 25.417 80.8398 22.6111Q80.8398 19.8052 81.5293 17.1809Q81.9512 15.5754 82.6328 14.0376C83.8887 11.3369 85.5566 8.98169 87.6309 6.97168Q88.0859 6.54443 88.5605 6.1416Q91.4395 3.70312 95.082 2.16699C97.9121 0.973633 100.93 0.376953 104.137 0.376953Q108.334 0.376953 112.027 1.7395Q112.568 1.93872 113.098 2.16699Q116.74 3.70312 119.619 6.1416Q120.094 6.54443 120.549 6.97168C122.686 8.98169 124.354 11.3369 125.547 14.0376C126.805 16.7385 127.434 19.5962 127.434 22.6111C127.434 24.7466 127.119 26.8506 126.49 28.9233C125.861 30.9331 124.887 32.8489 123.566 34.6702Q117.908 43.2437 112.154 51.9111L100.836 69.0579L93.291 69.0579ZM157.08 6.31226C162.299 6.31226 166.324 8.47925 169.152 12.813L169.152 12.9072C170.6 15.4194 171.699 18.5286 172.455 22.2341Q173.68 27.6985 173.68 35.0471C173.68 40.1345 173.24 44.5312 172.359 48.2368C171.543 51.9426 170.379 54.8633 168.871 56.9985C165.475 61.458 161.545 63.6877 157.08 63.6877C154.439 63.6877 152.082 63.1538 150.006 62.0862C147.994 60.9556 146.266 59.2598 144.818 56.9985C143.436 54.6748 142.367 51.7227 141.611 48.1426Q140.48 42.6782 140.48 35.0471Q140.48 27.2275 141.611 21.7632C142.43 18.1201 143.561 15.231 145.008 13.0955C148.215 8.57324 152.238 6.31226 157.08 6.31226ZM57.7012 37.4966C55.6895 38.2502 53.6152 38.6272 51.4766 38.6272C49.0879 38.6272 46.8555 38.1875 44.7793 37.3081C42.7051 36.429 40.8809 35.2668 39.3086 33.8223C37.8008 32.3777 36.6055 30.6819 35.7246 28.7349C34.8438 26.7878 34.4043 24.7466 34.4043 22.6111C34.4043 20.4756 34.8438 18.4343 35.7246 16.4873Q36.3926 15.011 37.3242 13.7275L37.3242 13.7273Q38.2383 12.4714 39.4043 11.3997Q39.9766 10.8733 40.5879 10.397Q42.4941 8.91235 44.7793 7.91382C46.8555 7.03467 49.0879 6.59497 51.4766 6.59497C53.8027 6.59497 56.0039 7.03467 58.0781 7.91382C60.1543 8.73047 61.9453 9.89233 63.4551 11.3997C65.0273 12.8442 66.2539 14.54 67.1328 16.4873C68.0762 18.4343 68.5488 20.4756 68.5488 22.6111Q68.5488 24.9014 67.8965 26.9883Q67.5566 28.0776 67.0391 29.1118C66.0957 31.0588 64.8066 32.7546 63.1719 34.1992C61.5996 35.5811 59.7773 36.6802 57.7012 37.4966ZM104.137 38.6272C106.275 38.6272 108.35 38.2502 110.361 37.4966C112.438 36.6802 114.26 35.5811 115.832 34.1992C117.467 32.7546 118.756 31.0588 119.699 29.1118C120.705 27.1018 121.209 24.9351 121.209 22.6111C121.209 20.4756 120.736 18.4343 119.793 16.4873C118.914 14.54 117.688 12.8442 116.115 11.3997C114.605 9.89233 112.814 8.73047 110.738 7.91382C108.664 7.03467 106.463 6.59497 104.137 6.59497Q101.049 6.59497 98.3125 7.57373L98.3086 7.5752Q97.8691 7.73193 97.4395 7.91382C95.4277 8.79321 93.6367 9.95508 92.0645 11.3997C90.4922 12.8442 89.2656 14.54 88.3848 16.4873C87.5059 18.4343 87.0645 20.4756 87.0645 22.6111C87.0645 24.7466 87.5059 26.7878 88.3848 28.7349C89.2656 30.6819 90.4609 32.3777 91.9688 33.8223C93.541 35.2668 95.3652 36.429 97.4395 37.3081Q97.8711 37.491 98.3125 37.6482Q101.049 38.6272 104.137 38.6272Z"
                  fill="#FFFFFF"
                  fill-opacity="1.000000"
                  fill-rule="evenodd"
                />
              </svg>