<svg width="1440.000000" height="113.599609" viewBox="0 0 1440 113.6" fill="none" xmlns="http://www.w3.org/2000/svg" xmlns:xlink="http://www.w3.org/1999/xlink">
	<desc>
			Created with Pixso.
	</desc>
	<defs>
		<filter id="filter_78_417_dd" x="890.699219" y="0.000000" width="110.601562" height="113.599609" filterUnits="userSpaceOnUse" color-interpolation-filters="sRGB">
			<feFlood flood-opacity="0" result="BackgroundImageFix"/>
			<feColorMatrix in="SourceAlpha" type="matrix" values="0 0 0 0 0 0 0 0 0 0 0 0 0 0 0 0 0 0 127 0" result="hardAlpha"/>
			<feOffset dx="0" dy="4"/>
			<feGaussianBlur stdDeviation="11.4333"/>
			<feComposite in2="hardAlpha" operator="out" k2="-1" k3="1"/>
			<feColorMatrix type="matrix" values="0 0 0 0 1 0 0 0 0 1 0 0 0 0 1 0 0 0 0.25 0"/>
			<feBlend mode="normal" in2="BackgroundImageFix" result="effect_dropShadow_1"/>
			<feBlend mode="normal" in="SourceGraphic" in2="effect_dropShadow_1" result="shape"/>
		</filter>
		<filter id="filter_78_418_dd" x="435.699219" y="0.000000" width="110.601562" height="113.599609" filterUnits="userSpaceOnUse" color-interpolation-filters="sRGB">
			<feFlood flood-opacity="0" result="BackgroundImageFix"/>
			<feColorMatrix in="SourceAlpha" type="matrix" values="0 0 0 0 0 0 0 0 0 0 0 0 0 0 0 0 0 0 127 0" result="hardAlpha"/>
			<feOffset dx="0" dy="4"/>
			<feGaussianBlur stdDeviation="11.4333"/>
			<feComposite in2="hardAlpha" operator="out" k2="-1" k3="1"/>
			<feColorMatrix type="matrix" values="0 0 0 0 1 0 0 0 0 1 0 0 0 0 1 0 0 0 0.25 0"/>
			<feBlend mode="normal" in2="BackgroundImageFix" result="effect_dropShadow_1"/>
			<feBlend mode="normal" in="SourceGraphic" in2="effect_dropShadow_1" result="shape"/>
		</filter>
	</defs>
	<line id="Line" x1="0.000000" y1="52.799805" x2="1440.000000" y2="52.799805" stroke="#000000" stroke-opacity="0.200000" stroke-width="1.000000"/>
	<g filter="url(#filter_78_417_dd)">
		<path id="Soft Star" d="M945.439 30.833C945.518 30.1221 946.482 30.1221 946.561 30.833L947.221 36.7993C948.074 44.5034 953.744 50.5771 960.934 51.4912L966.502 52.1992C967.166 52.2837 967.166 53.3159 966.502 53.4004L960.934 54.1084C953.744 55.0225 948.074 61.0962 947.221 68.8003L946.561 74.7661C946.482 75.4775 945.518 75.4775 945.439 74.7661L944.779 68.8003C943.926 61.0962 938.256 55.0225 931.066 54.1084L925.498 53.4004C924.834 53.3159 924.834 52.2837 925.498 52.1992L931.066 51.4912C938.256 50.5771 943.926 44.5034 944.779 36.7993L945.439 30.833Z" fill="#BE702D" fill-opacity="1.000000" fill-rule="nonzero"/>
	</g>
	<g filter="url(#filter_78_418_dd)">
		<path id="Soft Star" d="M490.439 30.833C490.518 30.1221 491.482 30.1221 491.561 30.833L492.221 36.7993C493.074 44.5034 498.744 50.5771 505.934 51.4912L511.502 52.1992C512.166 52.2837 512.166 53.3159 511.502 53.4004L505.934 54.1084C498.744 55.0225 493.074 61.0962 492.221 68.8003L491.561 74.7661C491.482 75.4775 490.518 75.4775 490.439 74.7661L489.779 68.8003C488.926 61.0962 483.256 55.0225 476.066 54.1084L470.498 53.4004C469.834 53.3159 469.834 52.2837 470.498 52.1992L476.066 51.4912C483.256 50.5771 488.926 44.5034 489.779 36.7993L490.439 30.833Z" fill="#BE702D" fill-opacity="1.000000" fill-rule="nonzero"/>
	</g>
</svg>
