<svg width="375.011719" height="96.600098" viewBox="0 0 375.012 96.6001" fill="none" xmlns="http://www.w3.org/2000/svg" xmlns:xlink="http://www.w3.org/1999/xlink">
	<desc>
			Created with Pixso.
	</desc>
	<defs>
		<filter id="filter_110_910_dd" x="15.699219" y="0.000000" width="94.601562" height="96.600098" filterUnits="userSpaceOnUse" color-interpolation-filters="sRGB">
			<feFlood flood-opacity="0" result="BackgroundImageFix"/>
			<feColorMatrix in="SourceAlpha" type="matrix" values="0 0 0 0 0 0 0 0 0 0 0 0 0 0 0 0 0 0 127 0" result="hardAlpha"/>
			<feOffset dx="0" dy="4"/>
			<feGaussianBlur stdDeviation="11.4333"/>
			<feComposite in2="hardAlpha" operator="out" k2="-1" k3="1"/>
			<feColorMatrix type="matrix" values="0 0 0 0 1 0 0 0 0 1 0 0 0 0 1 0 0 0 0.25 0"/>
			<feBlend mode="normal" in2="BackgroundImageFix" result="effect_dropShadow_1"/>
			<feBlend mode="normal" in="SourceGraphic" in2="effect_dropShadow_1" result="shape"/>
		</filter>
		<filter id="filter_110_911_dd" x="264.699219" y="0.000000" width="94.601562" height="96.600098" filterUnits="userSpaceOnUse" color-interpolation-filters="sRGB">
			<feFlood flood-opacity="0" result="BackgroundImageFix"/>
			<feColorMatrix in="SourceAlpha" type="matrix" values="0 0 0 0 0 0 0 0 0 0 0 0 0 0 0 0 0 0 127 0" result="hardAlpha"/>
			<feOffset dx="0" dy="4"/>
			<feGaussianBlur stdDeviation="11.4333"/>
			<feComposite in2="hardAlpha" operator="out" k2="-1" k3="1"/>
			<feColorMatrix type="matrix" values="0 0 0 0 1 0 0 0 0 1 0 0 0 0 1 0 0 0 0.25 0"/>
			<feBlend mode="normal" in2="BackgroundImageFix" result="effect_dropShadow_1"/>
			<feBlend mode="normal" in="SourceGraphic" in2="effect_dropShadow_1" result="shape"/>
		</filter>
	</defs>
	<line id="Line" x1="0.000000" y1="43.300049" x2="375.011719" y2="43.300049" stroke="#FFFFFF" stroke-opacity="0.300000" stroke-width="1.000000"/>
	<g filter="url(#filter_110_910_dd)">
		<path id="Soft Star" d="M62.6523 30.6318C62.7012 30.1895 63.2988 30.1895 63.3477 30.6318L63.7559 34.3442C64.2832 39.1377 67.793 42.9172 72.2441 43.4858L75.6914 43.9265C76.1035 43.979 76.1035 44.6211 75.6914 44.6736L72.2441 45.1143C67.793 45.6829 64.2832 49.4624 63.7559 54.2559L63.3477 57.968C63.2988 58.4106 62.7012 58.4106 62.6523 57.968L62.2441 54.2559C61.7168 49.4624 58.207 45.6829 53.7559 45.1143L50.3086 44.6736C49.8965 44.6211 49.8965 43.979 50.3086 43.9265L53.7559 43.4858C58.207 42.9172 61.7168 39.1377 62.2441 34.3442L62.6523 30.6318Z" fill="#BE702D" fill-opacity="1.000000" fill-rule="nonzero"/>
	</g>
	<g filter="url(#filter_110_911_dd)">
		<path id="Soft Star" d="M311.652 30.6318C311.701 30.1895 312.299 30.1895 312.348 30.6318L312.756 34.3442C313.283 39.1377 316.793 42.9172 321.244 43.4858L324.691 43.9265C325.104 43.979 325.104 44.6211 324.691 44.6736L321.244 45.1143C316.793 45.6829 313.283 49.4624 312.756 54.2559L312.348 57.968C312.299 58.4106 311.701 58.4106 311.652 57.968L311.244 54.2559C310.717 49.4624 307.207 45.6829 302.756 45.1143L299.309 44.6736C298.896 44.6211 298.896 43.979 299.309 43.9265L302.756 43.4858C307.207 42.9172 310.717 39.1377 311.244 34.3442L311.652 30.6318Z" fill="#BE702D" fill-opacity="1.000000" fill-rule="nonzero"/>
	</g>
</svg>
