<svg width="1440.000000" height="113.600098" viewBox="0 0 1440 113.6" fill="none" xmlns="http://www.w3.org/2000/svg" xmlns:xlink="http://www.w3.org/1999/xlink">
	<desc>
			Created with Pixso.
	</desc>
	<defs>
		<filter id="filter_78_414_dd" x="203.699219" y="0.000000" width="110.601562" height="113.600098" filterUnits="userSpaceOnUse" color-interpolation-filters="sRGB">
			<feFlood flood-opacity="0" result="BackgroundImageFix"/>
			<feColorMatrix in="SourceAlpha" type="matrix" values="0 0 0 0 0 0 0 0 0 0 0 0 0 0 0 0 0 0 127 0" result="hardAlpha"/>
			<feOffset dx="0" dy="4"/>
			<feGaussianBlur stdDeviation="11.4333"/>
			<feComposite in2="hardAlpha" operator="out" k2="-1" k3="1"/>
			<feColorMatrix type="matrix" values="0 0 0 0 1 0 0 0 0 1 0 0 0 0 1 0 0 0 0.25 0"/>
			<feBlend mode="normal" in2="BackgroundImageFix" result="effect_dropShadow_1"/>
			<feBlend mode="normal" in="SourceGraphic" in2="effect_dropShadow_1" result="shape"/>
		</filter>
		<filter id="filter_78_415_dd" x="1035.699219" y="0.000000" width="110.601562" height="113.600098" filterUnits="userSpaceOnUse" color-interpolation-filters="sRGB">
			<feFlood flood-opacity="0" result="BackgroundImageFix"/>
			<feColorMatrix in="SourceAlpha" type="matrix" values="0 0 0 0 0 0 0 0 0 0 0 0 0 0 0 0 0 0 127 0" result="hardAlpha"/>
			<feOffset dx="0" dy="4"/>
			<feGaussianBlur stdDeviation="11.4333"/>
			<feComposite in2="hardAlpha" operator="out" k2="-1" k3="1"/>
			<feColorMatrix type="matrix" values="0 0 0 0 1 0 0 0 0 1 0 0 0 0 1 0 0 0 0.25 0"/>
			<feBlend mode="normal" in2="BackgroundImageFix" result="effect_dropShadow_1"/>
			<feBlend mode="normal" in="SourceGraphic" in2="effect_dropShadow_1" result="shape"/>
		</filter>
	</defs>
	<line id="Line" x1="0.000000" y1="52.800049" x2="1440.000000" y2="53.015625" stroke="#FFFFFF" stroke-opacity="0.300000" stroke-width="1.000000"/>
	<g filter="url(#filter_78_414_dd)">
		<path id="Soft Star" d="M258.439 30.8335C258.518 30.1223 259.482 30.1223 259.561 30.8335L260.221 36.7996C261.074 44.5037 266.744 50.5776 273.934 51.4917L279.502 52.1997C280.166 52.2842 280.166 53.3159 279.502 53.4004L273.934 54.1084C266.744 55.0225 261.074 61.0964 260.221 68.8003L259.561 74.7666C259.482 75.4778 258.518 75.4778 258.439 74.7666L257.779 68.8003C256.926 61.0964 251.256 55.0225 244.066 54.1084L238.498 53.4004C237.834 53.3159 237.834 52.2842 238.498 52.1997L244.066 51.4917C251.256 50.5776 256.926 44.5037 257.779 36.7996L258.439 30.8335Z" fill="#BE702D" fill-opacity="1.000000" fill-rule="nonzero"/>
	</g>
	<g filter="url(#filter_78_415_dd)">
		<path id="Soft Star" d="M1090.44 30.8335C1090.52 30.1223 1091.48 30.1223 1091.56 30.8335L1092.22 36.7996C1093.07 44.5037 1098.74 50.5776 1105.93 51.4917L1111.5 52.1997C1112.17 52.2842 1112.17 53.3159 1111.5 53.4004L1105.93 54.1084C1098.74 55.0225 1093.07 61.0964 1092.22 68.8003L1091.56 74.7666C1091.48 75.4778 1090.52 75.4778 1090.44 74.7666L1089.78 68.8003C1088.93 61.0964 1083.26 55.0225 1076.07 54.1084L1070.5 53.4004C1069.83 53.3159 1069.83 52.2842 1070.5 52.1997L1076.07 51.4917C1083.26 50.5776 1088.93 44.5037 1089.78 36.7996L1090.44 30.8335Z" fill="#BE702D" fill-opacity="1.000000" fill-rule="nonzero"/>
	</g>
</svg>
