<svg width="346.000000" height="345.000000" viewBox="0 0 346 345" fill="none" xmlns="http://www.w3.org/2000/svg" xmlns:xlink="http://www.w3.org/1999/xlink">
	<desc>
			Created with Pixso.
	</desc>
	<defs>
		<filter id="filter_66_379_dd" x="127.000000" y="254.000000" width="91.000000" height="91.000000" filterUnits="userSpaceOnUse" color-interpolation-filters="sRGB">
			<feFlood flood-opacity="0" result="BackgroundImageFix"/>
			<feGaussianBlur in="BackgroundImage" stdDeviation="2.6"/>
			<feComposite in2="SourceAlpha" operator="in" result="effect_backgroundBlur_1"/>
			<feBlend mode="normal" in="SourceGraphic" in2="effect_backgroundBlur_1" result="shape"/>
		</filter>
		<clipPath id="clip66_385">
			<rect id="Frame 34" width="346.000000" height="22.000000" fill="white" fill-opacity="0"/>
		</clipPath>
		<clipPath id="clip84_156">
			<rect id="Hubble Sign - Entrance PDF-1 1" width="34.000000" height="7.000000" transform="translate(5.000000 50.000000)" fill="white" fill-opacity="0"/>
		</clipPath>
		<clipPath id="clip110_946">
			<rect id="Hubble Sign - Entrance PDF-1 1" width="36.000000" height="7.000000" transform="translate(3.000000 50.000000)" fill="white" fill-opacity="0"/>
		</clipPath>
		<clipPath id="clip84_173">
			<rect id="Frame 36" width="20.000000" height="20.000000" transform="translate(299.000000 42.000000)" fill="white" fill-opacity="0"/>
		</clipPath>
		<clipPath id="clip84_174">
			<rect id="Frame 37" width="20.000000" height="20.000000" transform="translate(326.000000 42.000000)" fill="white" fill-opacity="0"/>
		</clipPath>
	</defs>
	<g filter="url(#filter_66_379_dd)">
		<circle id="Ellipse 5" cx="172.500000" cy="299.500000" r="45.500000" fill="#FFFFFF" fill-opacity="0.100000"/>
	</g>
	<path id="Polygon 2" d="M186.348 299.5L162.609 313.348L162.609 285.652L186.348 299.5Z" fill="#FFFFFF" fill-opacity="1.000000" fill-rule="nonzero"/>
	<rect id="Frame 34" width="346.000000" height="22.000000" fill="#FFFFFF" fill-opacity="0"/>
	<g clip-path="url(#clip66_385)">
		<rect id="Rectangle 69" y="10.000000" width="83.000000" height="2.000000" fill="#FFFFFF" fill-opacity="1.000000"/>
		<rect id="Rectangle 70" x="87.666016" y="10.000000" width="83.000000" height="2.000000" fill="#FFFFFF" fill-opacity="0.200000"/>
		<rect id="Rectangle 71" x="175.333984" y="10.000000" width="83.000000" height="2.000000" fill="#FFFFFF" fill-opacity="0.200000"/>
		<rect id="Rectangle 72" x="263.000000" y="10.000000" width="83.000000" height="2.000000" fill="#FFFFFF" fill-opacity="0.200000"/>
	</g>
	<rect id="Hubble Sign - Entrance PDF-1 1" width="34.000000" height="7.000000" transform="translate(5.000000 50.000000)" fill="#FFFFFF" fill-opacity="0"/>
	<g clip-path="url(#clip84_156)">
		<path id="Vector" d="M5.00977 57C5.00977 54.6702 5.00977 52.3403 5.00977 50.0098C16.3379 50.0098 27.6641 50.0098 38.9961 50.0144C39 52.324 39 54.6292 39 56.9341C39 56.9556 39 56.9768 38.9941 56.999C27.6641 57 16.3359 57 5.00977 57ZM24.1875 55.4504C24.6211 55.4504 25.0547 55.4509 25.4883 55.4502C25.5352 55.4502 25.582 55.4475 25.6289 55.4414C26.3535 55.3474 26.8125 54.6194 26.5859 53.9236C26.5371 53.7688 26.4551 53.6313 26.3496 53.5078C26.3594 53.4944 26.3691 53.4834 26.3789 53.4719C26.5898 53.209 26.6777 52.9084 26.6328 52.5747C26.5508 51.9839 26.0645 51.5642 25.4707 51.5642C24.5938 51.564 23.7188 51.5642 22.8418 51.5642C22.8223 51.5642 22.8027 51.5642 22.7832 51.5642C22.7832 52.8618 22.7832 54.1553 22.7832 55.4504C23.25 55.4504 23.7148 55.4504 24.1875 55.4504ZM21.1602 53.8755C21.1113 53.739 21.0352 53.6179 20.9414 53.5078C20.9512 53.4944 20.9609 53.4846 20.9688 53.4744C21.1953 53.1902 21.2832 52.8667 21.2129 52.51C21.1016 51.9458 20.6328 51.5647 20.0605 51.5642C19.1816 51.5637 18.3008 51.5642 17.4219 51.5642C17.4062 51.5642 17.3906 51.5642 17.375 51.5642C17.375 52.8625 17.375 54.155 17.375 55.4504C17.3887 55.4504 17.3984 55.4504 17.4102 55.4504C18.3047 55.4504 19.1992 55.4509 20.0938 55.4497C20.1562 55.4497 20.2207 55.4429 20.2832 55.4316C20.9922 55.3018 21.4141 54.5598 21.1602 53.8755ZM35.3945 51.5642C34.7969 51.5642 34.1973 51.5642 33.5996 51.5642C33.5996 52.8628 33.5996 54.1558 33.5996 55.448C34.8867 55.448 36.1719 55.448 37.457 55.448C37.457 55.1897 37.457 54.9338 37.457 54.6731C36.4277 54.6731 35.4004 54.6731 34.3711 54.6731C34.3711 54.4124 34.3711 54.1565 34.3711 53.8962C35.4023 53.8962 36.4297 53.8962 37.457 53.8962C37.457 53.6355 37.457 53.3794 37.457 53.1191C36.4277 53.1191 35.4004 53.1191 34.373 53.1191C34.373 52.8577 34.373 52.6006 34.373 52.3389C35.4023 52.3389 36.4297 52.3389 37.457 52.3389C37.457 52.0786 37.457 51.823 37.457 51.5642C36.7695 51.5642 36.0879 51.5642 35.3945 51.5642ZM9.64453 52.6509C9.64453 52.8062 9.64453 52.9617 9.64453 53.1169C8.86914 53.1169 8.09961 53.1169 7.32617 53.1169C7.32617 52.5986 7.32617 52.083 7.32617 51.5676C7.06641 51.5676 6.8125 51.5676 6.55664 51.5676C6.55664 52.8633 6.55664 54.1558 6.55664 55.448C6.81445 55.448 7.06836 55.448 7.32812 55.448C7.32812 54.9302 7.32812 54.4148 7.32812 53.9004C8.10352 53.9004 8.87305 53.9004 9.64648 53.9004C9.64648 54.418 9.64648 54.9324 9.64648 55.4473C9.9043 55.4473 10.1602 55.4473 10.4141 55.4473C10.4141 54.1516 10.4141 52.8594 10.4141 51.5674C10.1562 51.5674 9.90234 51.5674 9.64453 51.5674C9.64453 51.9275 9.64453 52.2842 9.64453 52.6509ZM12.2754 54.5918C12.6328 55.1052 13.123 55.396 13.7441 55.4458C14.1953 55.4817 14.6152 55.3694 14.9863 55.1055C15.5098 54.7317 15.8027 54.2185 15.8203 53.5706C15.8379 52.9094 15.8262 52.2478 15.8262 51.5864C15.8262 51.5801 15.8242 51.574 15.8223 51.5674C15.5664 51.5674 15.3125 51.5674 15.0547 51.5674C15.0547 51.5884 15.0547 51.6062 15.0547 51.624C15.0547 52.2444 15.0547 52.8647 15.0547 53.4851C15.0547 53.5359 15.0527 53.5872 15.0449 53.6377C14.959 54.3687 14.2285 54.8418 13.5312 54.6199C13.043 54.4644 12.709 54.0046 12.7148 53.4885C12.7207 52.8638 12.7285 52.2388 12.7344 51.614C12.7344 51.5984 12.7324 51.5825 12.7324 51.5674C12.4668 51.5674 12.207 51.5674 11.9434 51.5674C11.9434 51.5835 11.9414 51.5964 11.9414 51.6094C11.9414 52.2378 11.9414 52.8665 11.9414 53.4949C11.9434 53.8911 12.0527 54.2556 12.2754 54.5918ZM28.9609 52.8186C28.9609 52.4016 28.9609 51.9844 28.9609 51.5684C28.6992 51.5684 28.4453 51.5684 28.1895 51.5684C28.1895 52.8638 28.1895 54.1548 28.1895 55.4478C29.4766 55.4478 30.7637 55.4478 32.0508 55.4478C32.0508 55.1895 32.0508 54.9338 32.0508 54.6733C31.0195 54.6733 29.9922 54.6733 28.9609 54.6733C28.9609 54.0552 28.9609 53.4419 28.9609 52.8186Z" fill="#020404" fill-opacity="0" fill-rule="nonzero"/>
		<path id="Vector" d="M5.00977 57.0049C16.3359 57 27.6641 57 38.9941 57.002C39 57.0061 39 57.0078 39 57.0098C27.6699 57.0098 16.3398 57.0098 5.00977 57.0049Z" fill="#565656" fill-opacity="1.000000" fill-rule="nonzero"/>
		<path id="Vector" d="M39.0059 57.0098C39 57.0078 39 57.0059 39 57.0012C39 56.9768 39 56.9556 39 56.9341C39 54.6292 39 52.324 39 50.0144C39.0039 50.0115 39.0098 50.0129 39.0098 50.0146C39.0117 50.0278 39.0117 50.041 39.0117 50.0542C39.0117 52.3728 39.0117 54.6912 39.0059 57.0098Z" fill="#696B6B" fill-opacity="1.000000" fill-rule="nonzero"/>
		<path id="Vector" d="M24.1836 55.4507C23.7148 55.4507 23.25 55.4507 22.7832 55.4507C22.7832 54.1553 22.7832 52.8621 22.7832 51.5642C22.8047 51.5642 22.8223 51.5642 22.8418 51.5642C23.7188 51.5642 24.5957 51.5642 25.4707 51.5642C26.0645 51.5642 26.5508 51.9841 26.6328 52.5747C26.6777 52.9087 26.5898 53.209 26.3789 53.4722C26.3691 53.4836 26.3613 53.4944 26.3496 53.5078C26.457 53.6313 26.5371 53.769 26.5859 53.9236C26.8125 54.6196 26.3535 55.3477 25.6289 55.4417C25.582 55.4478 25.5352 55.4502 25.4883 55.4502C25.0547 55.4509 24.6211 55.4507 24.1836 55.4507ZM25.5781 53.1086C25.752 53.0544 25.8652 52.9163 25.8711 52.75C25.877 52.5181 25.7051 52.3413 25.4688 52.3411C24.8457 52.3408 24.2227 52.3411 23.5996 52.3411C23.5859 52.3411 23.5723 52.3411 23.5566 52.3411C23.5566 52.6028 23.5566 52.8596 23.5566 53.1196C23.5684 53.1196 23.5781 53.1196 23.5879 53.1196C24.2188 53.1196 24.8496 53.1196 25.4824 53.1191C25.5098 53.1191 25.5391 53.1133 25.5781 53.1086ZM23.5605 54.6721C23.5684 54.6726 23.5762 54.6731 23.5859 54.6731C24.2168 54.6731 24.8477 54.6731 25.4785 54.6731C25.4922 54.6731 25.5078 54.6726 25.5215 54.6714C25.707 54.6575 25.8633 54.4954 25.8711 54.3076C25.8789 54.0757 25.709 53.8979 25.4727 53.8977C24.8457 53.897 24.2168 53.8975 23.5898 53.8975C23.5781 53.8975 23.5684 53.8975 23.5547 53.8975C23.5547 54.1562 23.5547 54.4104 23.5605 54.6721Z" fill="#FEFEFE" fill-opacity="1.000000" fill-rule="nonzero"/>
		<path id="Vector" d="M21.1621 53.8794C21.4141 54.5598 20.9922 55.302 20.2832 55.4316C20.2207 55.4429 20.1562 55.4497 20.0938 55.4497C19.1992 55.4509 18.3047 55.4507 17.4102 55.4507C17.4004 55.4507 17.3887 55.4507 17.375 55.4507C17.375 54.155 17.375 52.8625 17.375 51.5642C17.3906 51.5642 17.4062 51.5642 17.4219 51.5642C18.3027 51.5642 19.1816 51.5637 20.0605 51.5642C20.6328 51.5647 21.1035 51.946 21.2129 52.51C21.2832 52.8669 21.1953 53.1902 20.9688 53.4744C20.9609 53.4846 20.9531 53.4944 20.9414 53.5078C21.0352 53.6179 21.1113 53.739 21.1621 53.8794ZM20.377 52.9761C20.4746 52.8464 20.4941 52.7056 20.4219 52.5598C20.3496 52.4121 20.2246 52.3416 20.0625 52.3413C19.4375 52.3406 18.8125 52.3408 18.1895 52.3411C18.1758 52.3411 18.1602 52.3425 18.1465 52.3435C18.1465 52.6038 18.1465 52.8596 18.1465 53.1194C18.1641 53.1194 18.1816 53.1194 18.1973 53.1194C18.8164 53.1194 19.4355 53.1189 20.0547 53.1199C20.1816 53.1201 20.2871 53.0774 20.377 52.9761ZM20.1309 53.9004C20.1055 53.8994 20.0781 53.8975 20.0527 53.8975C19.4355 53.8972 18.8164 53.8972 18.1992 53.8972C18.1816 53.8972 18.1641 53.8972 18.1484 53.8972C18.1484 54.1589 18.1484 54.4143 18.1484 54.6731C18.1641 54.6731 18.1758 54.6731 18.1895 54.6731C18.8145 54.6731 19.4414 54.6731 20.0664 54.6731C20.0859 54.6731 20.1035 54.6721 20.1211 54.6704C20.3281 54.6526 20.4902 54.4473 20.4609 54.2407C20.4355 54.0642 20.3242 53.9468 20.1309 53.9004Z" fill="#FEFEFE" fill-opacity="1.000000" fill-rule="nonzero"/>
		<path id="Vector" d="M35.3984 51.5642C36.0879 51.5642 36.7695 51.5642 37.457 51.5642C37.457 51.823 37.457 52.0789 37.457 52.3391C36.4316 52.3391 35.4043 52.3391 34.373 52.3391C34.373 52.6006 34.373 52.8577 34.373 53.1191C35.4004 53.1191 36.4277 53.1191 37.457 53.1191C37.457 53.3796 37.457 53.6355 37.457 53.8962C36.4297 53.8962 35.4023 53.8962 34.3711 53.8962C34.3711 54.1567 34.3711 54.4124 34.3711 54.6731C35.4004 54.6731 36.4277 54.6731 37.457 54.6731C37.457 54.9338 37.457 55.1899 37.457 55.4482C36.1719 55.4482 34.8887 55.4482 33.5996 55.4482C33.5996 54.1558 33.5996 52.863 33.5996 51.5642C34.1973 51.5642 34.7969 51.5642 35.3984 51.5642Z" fill="#FEFEFE" fill-opacity="1.000000" fill-rule="nonzero"/>
		<path id="Vector" d="M9.64648 52.6458C9.64648 52.2842 9.64648 51.9275 9.64648 51.5674C9.9043 51.5674 10.1582 51.5674 10.416 51.5674C10.416 52.8594 10.416 54.1516 10.416 55.4473C10.1621 55.4473 9.90625 55.4473 9.64648 55.4473C9.64648 54.9321 9.64648 54.418 9.64648 53.9004C8.87305 53.9004 8.10352 53.9004 7.33008 53.9004C7.33008 54.4146 7.33008 54.9302 7.33008 55.448C7.07031 55.448 6.81641 55.448 6.55859 55.448C6.55859 54.1558 6.55859 52.8633 6.55859 51.5674C6.8125 51.5674 7.06836 51.5674 7.32617 51.5674C7.32617 52.083 7.32617 52.5986 7.32617 53.1167C8.09961 53.1167 8.86914 53.1167 9.64648 53.1167C9.64648 52.9617 9.64648 52.8062 9.64648 52.6458Z" fill="#FEFEFE" fill-opacity="1.000000" fill-rule="nonzero"/>
		<path id="Vector" d="M12.2734 54.5889C12.0527 54.2556 11.9434 53.8914 11.9414 53.4949C11.9414 52.8665 11.9414 52.2378 11.9414 51.6094C11.9414 51.5964 11.9434 51.5835 11.9434 51.5676C12.207 51.5676 12.4668 51.5676 12.7324 51.5676C12.7324 51.5828 12.7344 51.5984 12.7344 51.614C12.7285 52.239 12.7207 52.8638 12.7148 53.4888C12.7109 54.0049 13.043 54.4644 13.5312 54.6199C14.2305 54.842 14.959 54.3689 15.0469 53.6377C15.0527 53.5872 15.0547 53.5359 15.0547 53.4851C15.0547 52.8647 15.0547 52.2446 15.0547 51.6243C15.0547 51.6062 15.0547 51.5884 15.0547 51.5674C15.3125 51.5674 15.5664 51.5674 15.8223 51.5674C15.8242 51.5742 15.8262 51.5803 15.8262 51.5864C15.8262 52.2478 15.8379 52.9097 15.8203 53.5706C15.8047 54.2185 15.5098 54.7319 14.9863 55.1057C14.6152 55.3694 14.1953 55.4819 13.7461 55.4458C13.123 55.396 12.6348 55.1052 12.2734 54.5889Z" fill="#FEFEFE" fill-opacity="1.000000" fill-rule="nonzero"/>
		<path id="Vector" d="M28.9609 52.8237C28.9609 53.4419 28.9609 54.0554 28.9609 54.6733C29.9922 54.6733 31.0195 54.6733 32.0488 54.6733C32.0488 54.9338 32.0488 55.1895 32.0488 55.448C30.7637 55.448 29.4766 55.448 28.1895 55.448C28.1895 54.155 28.1895 52.864 28.1895 51.5686C28.4453 51.5686 28.6992 51.5686 28.9609 51.5686C28.9609 51.9846 28.9609 52.4016 28.9609 52.8237Z" fill="#FEFEFE" fill-opacity="1.000000" fill-rule="nonzero"/>
	</g>
	<circle id="Ellipse 8" cx="21.000000" cy="53.000000" r="21.000000" fill="#000000" fill-opacity="1.000000"/>
	<rect id="Hubble Sign - Entrance PDF-1 1" width="36.000000" height="7.000000" transform="translate(3.000000 50.000000)" fill="#FFFFFF" fill-opacity="0"/>
	<g clip-path="url(#clip110_946)">
		<path id="Vector" d="M3.00977 57C3.00977 54.6702 3.00977 52.3403 3.00977 50.0098C15.0039 50.0098 26.9961 50.0098 38.9941 50.0144C39 52.324 39 54.6292 39 56.9341C39 56.9556 38.998 56.9768 38.9941 56.999C26.9961 57 15.0039 57 3.00977 57ZM23.3164 55.4504C23.7754 55.4504 24.2344 55.4509 24.6934 55.4502C24.7422 55.4502 24.793 55.4475 24.8418 55.4414C25.6094 55.3474 26.0957 54.6194 25.8555 53.9236C25.8027 53.7688 25.7168 53.6313 25.6035 53.5078C25.6152 53.4944 25.627 53.4834 25.6367 53.4719C25.8594 53.209 25.9531 52.9084 25.9043 52.5747C25.8184 51.9839 25.3027 51.5642 24.6738 51.5642C23.7461 51.564 22.8184 51.5642 21.8906 51.5642C21.8711 51.5642 21.8496 51.5642 21.8281 51.5642C21.8281 52.8618 21.8281 54.1553 21.8281 55.4504C22.3223 55.4504 22.8145 55.4504 23.3164 55.4504ZM20.1113 53.8755C20.0586 53.739 19.9785 53.6179 19.8789 53.5078C19.8906 53.4944 19.8984 53.4846 19.9082 53.4744C20.1484 53.1902 20.2402 52.8667 20.166 52.51C20.0488 51.9458 19.5527 51.5647 18.9453 51.5642C18.0156 51.5637 17.084 51.5642 16.1523 51.5642C16.1348 51.5642 16.1191 51.5642 16.1016 51.5642C16.1016 52.8625 16.1016 54.155 16.1016 55.4504C16.1172 55.4504 16.1289 55.4504 16.1406 55.4504C17.0859 55.4504 18.0332 55.4509 18.9805 55.4497C19.0469 55.4497 19.1152 55.4429 19.1816 55.4316C19.9336 55.3018 20.3789 54.5598 20.1113 53.8755ZM35.1816 51.5642C34.5488 51.5642 33.9141 51.5642 33.2812 51.5642C33.2812 52.8628 33.2812 54.1558 33.2812 55.448C34.6445 55.448 36.0059 55.448 37.3672 55.448C37.3672 55.1897 37.3672 54.9338 37.3672 54.6731C36.2754 54.6731 35.1875 54.6731 34.0996 54.6731C34.0996 54.4124 34.0996 54.1565 34.0996 53.8962C35.1895 53.8962 36.2773 53.8962 37.3672 53.8962C37.3672 53.6355 37.3672 53.3794 37.3672 53.1191C36.2773 53.1191 35.1875 53.1191 34.0996 53.1191C34.0996 52.8577 34.0996 52.6006 34.0996 52.3389C35.1914 52.3389 36.2793 52.3389 37.3652 52.3389C37.3652 52.0786 37.3652 51.823 37.3652 51.5642C36.6387 51.5642 35.9141 51.5642 35.1816 51.5642ZM7.91797 52.6509C7.91797 52.8062 7.91797 52.9617 7.91797 53.1169C7.0957 53.1169 6.28125 53.1169 5.46094 53.1169C5.46094 52.5986 5.46094 52.083 5.46094 51.5676C5.1875 51.5676 4.91797 51.5676 4.64844 51.5676C4.64844 52.8633 4.64844 54.1558 4.64844 55.448C4.92188 55.448 5.18945 55.448 5.46484 55.448C5.46484 54.9302 5.46484 54.4148 5.46484 53.9004C6.28516 53.9004 7.09961 53.9004 7.91797 53.9004C7.91797 54.418 7.91797 54.9324 7.91797 55.4473C8.19336 55.4473 8.46289 55.4473 8.73242 55.4473C8.73242 54.1516 8.73242 52.8594 8.73242 51.5674C8.45898 51.5674 8.18945 51.5674 7.91797 51.5674C7.91797 51.9275 7.91797 52.2842 7.91797 52.6509ZM10.7031 54.5918C11.082 55.1052 11.6016 55.396 12.2578 55.4458C12.7363 55.4817 13.1797 55.3694 13.5723 55.1055C14.1289 54.7317 14.4395 54.2185 14.457 53.5706C14.4746 52.9094 14.4609 52.2478 14.4609 51.5864C14.4609 51.5801 14.459 51.574 14.457 51.5674C14.1875 51.5674 13.918 51.5674 13.6445 51.5674C13.6445 51.5884 13.6445 51.6062 13.6445 51.624C13.6445 52.2444 13.6445 52.8647 13.6445 53.4851C13.6445 53.5359 13.6426 53.5872 13.6367 53.6377C13.5449 54.3687 12.7715 54.8418 12.0332 54.6199C11.5156 54.4644 11.1621 54.0046 11.168 53.4885C11.1738 52.8638 11.1816 52.2388 11.1895 51.614C11.1895 51.5984 11.1875 51.5825 11.1875 51.5674C10.9062 51.5674 10.6289 51.5674 10.3516 51.5674C10.3496 51.5835 10.3496 51.5964 10.3496 51.6094C10.3496 52.2378 10.3477 52.8665 10.3496 53.4949C10.3516 53.8911 10.4668 54.2556 10.7031 54.5918ZM28.3711 52.8186C28.3711 52.4016 28.3711 51.9844 28.3711 51.5684C28.0938 51.5684 27.8242 51.5684 27.5527 51.5684C27.5527 52.8638 27.5527 54.1548 27.5527 55.4478C28.916 55.4478 30.2773 55.4478 31.6406 55.4478C31.6406 55.1895 31.6406 54.9338 31.6406 54.6733C30.5508 54.6733 29.4629 54.6733 28.3711 54.6733C28.3711 54.0552 28.3711 53.4419 28.3711 52.8186Z" fill="#020404" fill-opacity="0" fill-rule="nonzero"/>
		<path id="Vector" d="M3.00977 57.0049C15.0039 57 26.9961 57 38.9941 57.002C38.998 57.0061 39 57.0078 39 57.0098C27.002 57.0098 15.0059 57.0098 3.00977 57.0049Z" fill="#565656" fill-opacity="1.000000" fill-rule="nonzero"/>
		<path id="Vector" d="M39.0059 57.0098C39 57.0078 39 57.0059 39 57.0012C39 56.9768 39 56.9556 39 56.9341C39 54.6292 39 52.324 39 50.0144C39.0039 50.0115 39.0117 50.0129 39.0117 50.0146C39.0117 50.0278 39.0117 50.041 39.0117 50.0542C39.0117 52.3728 39.0117 54.6912 39.0059 57.0098Z" fill="#696B6B" fill-opacity="1.000000" fill-rule="nonzero"/>
		<path id="Vector" d="M23.3105 55.4507C22.8145 55.4507 22.3223 55.4507 21.8281 55.4507C21.8281 54.1553 21.8281 52.8621 21.8281 51.5642C21.8496 51.5642 21.8711 51.5642 21.8906 51.5642C22.8184 51.5642 23.7461 51.5642 24.6738 51.5642C25.3027 51.5642 25.8184 51.9841 25.9043 52.5747C25.9531 52.9087 25.8574 53.209 25.6348 53.4722C25.627 53.4836 25.6152 53.4944 25.6035 53.5078C25.7168 53.6313 25.8027 53.769 25.8555 53.9236C26.0938 54.6196 25.6094 55.3477 24.8418 55.4417C24.793 55.4478 24.7422 55.4502 24.6914 55.4502C24.2324 55.4509 23.7754 55.4507 23.3105 55.4507ZM24.7871 53.1086C24.9727 53.0544 25.0918 52.9163 25.0977 52.75C25.1055 52.5181 24.9219 52.3413 24.6719 52.3411C24.0117 52.3408 23.3535 52.3411 22.6934 52.3411C22.6777 52.3411 22.6621 52.3411 22.6465 52.3411C22.6465 52.6028 22.6465 52.8596 22.6465 53.1196C22.6602 53.1196 22.6699 53.1196 22.6797 53.1196C23.3477 53.1196 24.0176 53.1196 24.6855 53.1191C24.7168 53.1191 24.7461 53.1133 24.7871 53.1086ZM22.6504 54.6721C22.6602 54.6726 22.668 54.6731 22.6777 54.6731C23.3457 54.6731 24.0137 54.6731 24.6816 54.6731C24.6973 54.6731 24.7129 54.6726 24.7285 54.6714C24.9238 54.6575 25.0898 54.4954 25.0977 54.3076C25.1074 54.0757 24.9258 53.8979 24.6758 53.8977C24.0117 53.897 23.3477 53.8975 22.6816 53.8975C22.6699 53.8975 22.6582 53.8975 22.6445 53.8975C22.6445 54.1562 22.6445 54.4104 22.6504 54.6721Z" fill="#FEFEFE" fill-opacity="1.000000" fill-rule="nonzero"/>
		<path id="Vector" d="M20.1133 53.8794C20.3809 54.5598 19.9336 55.302 19.1836 55.4316C19.1172 55.4429 19.0488 55.4497 18.9824 55.4497C18.0352 55.4509 17.0879 55.4507 16.1406 55.4507C16.1289 55.4507 16.1172 55.4507 16.1035 55.4507C16.1035 54.155 16.1035 52.8625 16.1035 51.5642C16.1211 51.5642 16.1367 51.5642 16.1543 51.5642C17.084 51.5642 18.0156 51.5637 18.9473 51.5642C19.5527 51.5647 20.0508 51.946 20.168 52.51C20.2402 52.8669 20.1484 53.1902 19.9082 53.4744C19.9004 53.4846 19.8906 53.4944 19.8789 53.5078C19.9785 53.6179 20.0605 53.739 20.1133 53.8794ZM19.2812 52.9761C19.3848 52.8464 19.4043 52.7056 19.3301 52.5598C19.2539 52.4121 19.1211 52.3416 18.9492 52.3413C18.2871 52.3406 17.627 52.3408 16.9648 52.3411C16.9512 52.3411 16.9355 52.3425 16.9199 52.3435C16.9199 52.6038 16.9199 52.8596 16.9199 53.1194C16.9395 53.1194 16.957 53.1194 16.9746 53.1194C17.6289 53.1194 18.2852 53.1189 18.9414 53.1199C19.0762 53.1201 19.1875 53.0774 19.2812 52.9761ZM19.0215 53.9004C18.9941 53.8994 18.9668 53.8975 18.9395 53.8975C18.2852 53.8972 17.6309 53.8972 16.9766 53.8972C16.957 53.8972 16.9395 53.8972 16.9219 53.8972C16.9219 54.1589 16.9219 54.4143 16.9219 54.6731C16.9395 54.6731 16.9531 54.6731 16.9668 54.6731C17.6289 54.6731 18.291 54.6731 18.9531 54.6731C18.9727 54.6731 18.9922 54.6721 19.0117 54.6704C19.2285 54.6526 19.4004 54.4473 19.3711 54.2407C19.3438 54.0642 19.2266 53.9468 19.0215 53.9004Z" fill="#FEFEFE" fill-opacity="1.000000" fill-rule="nonzero"/>
		<path id="Vector" d="M35.1855 51.5642C35.916 51.5642 36.6387 51.5642 37.3652 51.5642C37.3652 51.823 37.3652 52.0789 37.3652 52.3391C36.2793 52.3391 35.1914 52.3391 34.0996 52.3391C34.0996 52.6006 34.0996 52.8577 34.0996 53.1191C35.1895 53.1191 36.2773 53.1191 37.3672 53.1191C37.3672 53.3796 37.3672 53.6355 37.3672 53.8962C36.2773 53.8962 35.1895 53.8962 34.0996 53.8962C34.0996 54.1567 34.0996 54.4124 34.0996 54.6731C35.1875 54.6731 36.2773 54.6731 37.3672 54.6731C37.3672 54.9338 37.3672 55.1899 37.3672 55.4482C36.0059 55.4482 34.6445 55.4482 33.2812 55.4482C33.2812 54.1558 33.2812 52.863 33.2812 51.5642C33.9141 51.5642 34.5488 51.5642 35.1855 51.5642Z" fill="#FEFEFE" fill-opacity="1.000000" fill-rule="nonzero"/>
		<path id="Vector" d="M7.91797 52.6458C7.91797 52.2842 7.91797 51.9275 7.91797 51.5674C8.19141 51.5674 8.46094 51.5674 8.73438 51.5674C8.73438 52.8594 8.73438 54.1516 8.73438 55.4473C8.46484 55.4473 8.19531 55.4473 7.91992 55.4473C7.91992 54.9321 7.91992 54.418 7.91992 53.9004C7.10156 53.9004 6.28711 53.9004 5.4668 53.9004C5.4668 54.4146 5.4668 54.9302 5.4668 55.448C5.19141 55.448 4.92383 55.448 4.65039 55.448C4.65039 54.1558 4.65039 52.8633 4.65039 51.5674C4.91992 51.5674 5.18945 51.5674 5.46289 51.5674C5.46289 52.083 5.46289 52.5986 5.46289 53.1167C6.2832 53.1167 7.09766 53.1167 7.91797 53.1167C7.91797 52.9617 7.91797 52.8062 7.91797 52.6458Z" fill="#FEFEFE" fill-opacity="1.000000" fill-rule="nonzero"/>
		<path id="Vector" d="M10.7012 54.5889C10.4668 54.2556 10.3516 53.8914 10.3496 53.4949C10.3496 52.8665 10.3496 52.2378 10.3496 51.6094C10.3496 51.5964 10.3516 51.5835 10.3516 51.5676C10.6309 51.5676 10.9062 51.5676 11.1875 51.5676C11.1875 51.5828 11.1895 51.5984 11.1895 51.614C11.1836 52.239 11.1738 52.8638 11.168 53.4888C11.1641 54.0049 11.5156 54.4644 12.0332 54.6199C12.7715 54.842 13.5449 54.3689 13.6367 53.6377C13.6426 53.5872 13.6445 53.5359 13.6445 53.4851C13.6465 52.8647 13.6465 52.2446 13.6465 51.6243C13.6465 51.6062 13.6465 51.5884 13.6465 51.5674C13.918 51.5674 14.1875 51.5674 14.459 51.5674C14.4609 51.5742 14.4629 51.5803 14.4629 51.5864C14.4629 52.2478 14.4746 52.9097 14.457 53.5706C14.4395 54.2185 14.1289 54.7319 13.5723 55.1057C13.1797 55.3694 12.7363 55.4819 12.2598 55.4458C11.6016 55.396 11.082 55.1052 10.7012 54.5889Z" fill="#FEFEFE" fill-opacity="1.000000" fill-rule="nonzero"/>
		<path id="Vector" d="M28.3711 52.8237C28.3711 53.4419 28.3711 54.0554 28.3711 54.6733C29.4629 54.6733 30.5508 54.6733 31.6426 54.6733C31.6426 54.9338 31.6426 55.1895 31.6426 55.448C30.2793 55.448 28.918 55.448 27.5547 55.448C27.5547 54.155 27.5547 52.864 27.5547 51.5686C27.8242 51.5686 28.0957 51.5686 28.3711 51.5686C28.3711 51.9846 28.3711 52.4016 28.3711 52.8237Z" fill="#FEFEFE" fill-opacity="1.000000" fill-rule="nonzero"/>
	</g>
	<path id="MASTERPIECES" d="M53.918 59.827L53.918 47.065L55.178 47.065L59.534 56.569C59.858 55.861 60.206 55.105 60.578 54.301C60.95 53.497 61.328 52.681 61.712 51.853C62.096 51.025 62.474 50.203 62.846 49.387C63.218 48.571 63.572 47.797 63.908 47.065L65.15 47.065L65.15 59.827L64.016 59.827L64.016 49.567L60.056 58.189C59.9 58.561 59.726 58.945 59.534 59.341L59.03 58.189L55.07 49.549L55.07 59.827L53.918 59.827ZM66.915 59.827C67.275 58.723 67.623 57.643 67.959 56.587C68.307 55.531 68.649 54.481 68.985 53.437C69.333 52.393 69.681 51.349 70.029 50.305C70.377 49.249 70.731 48.169 71.091 47.065L72.549 47.065C72.909 48.169 73.263 49.249 73.611 50.305C73.971 51.361 74.319 52.411 74.655 53.455C75.003 54.499 75.345 55.549 75.681 56.605C76.029 57.649 76.383 58.723 76.743 59.827L75.519 59.827L74.511 56.821L69.075 56.821C68.919 57.277 68.757 57.775 68.589 58.315C68.421 58.843 68.259 59.347 68.103 59.827L66.915 59.827ZM71.811 48.559L69.381 55.903L74.241 55.903L71.811 48.559ZM84.8715 48.541C84.8355 48.517 84.8175 48.505 84.8175 48.505C84.8175 48.505 84.7935 48.487 84.7455 48.451C84.2175 47.995 83.4375 47.767 82.4055 47.767C82.0455 47.767 81.6975 47.815 81.3615 47.911C81.0255 47.995 80.7315 48.127 80.4795 48.307C80.2275 48.475 80.0235 48.691 79.8675 48.955C79.7235 49.207 79.6515 49.501 79.6515 49.837C79.6515 50.185 79.8195 50.539 80.1555 50.899C80.5035 51.247 80.9895 51.577 81.6135 51.889C82.1655 52.165 82.6995 52.459 83.2155 52.771C83.7435 53.071 84.2115 53.371 84.6195 53.671C84.9915 53.959 85.2735 54.307 85.4655 54.715C85.6695 55.123 85.7715 55.597 85.7715 56.137C85.7715 56.701 85.6635 57.223 85.4475 57.703C85.2435 58.171 84.9675 58.585 84.6195 58.945C84.2715 59.293 83.8575 59.569 83.3775 59.773C82.9095 59.965 82.4175 60.061 81.9015 60.061C81.5415 60.061 81.1875 60.007 80.8395 59.899C80.4915 59.803 80.1615 59.665 79.8495 59.485C79.5495 59.293 79.2735 59.065 79.0215 58.801C78.7695 58.525 78.5715 58.219 78.4275 57.883C78.6315 57.775 78.8055 57.685 78.9495 57.613C79.1055 57.529 79.2675 57.439 79.4355 57.343C79.6635 57.799 79.9995 58.171 80.4435 58.459C80.8875 58.747 81.3735 58.891 81.9015 58.891C82.2735 58.891 82.6215 58.819 82.9455 58.675C83.2815 58.531 83.5695 58.339 83.8095 58.099C84.0615 57.859 84.2595 57.577 84.4035 57.253C84.5475 56.917 84.6195 56.563 84.6195 56.191C84.6195 55.399 84.2475 54.757 83.5035 54.265L83.5035 54.283C83.1915 54.067 82.8975 53.881 82.6215 53.725C82.3575 53.569 82.0875 53.425 81.8115 53.293L81.8295 53.293C81.3855 53.053 80.9475 52.807 80.5155 52.555C80.0835 52.303 79.6935 52.027 79.3455 51.727C78.7935 51.259 78.5175 50.563 78.5175 49.639C78.5175 49.207 78.6135 48.817 78.8055 48.469C79.0095 48.109 79.2735 47.803 79.5975 47.551C79.9335 47.299 80.3235 47.107 80.7675 46.975C81.2235 46.843 81.7035 46.777 82.2075 46.777C83.2395 46.777 84.1275 46.945 84.8715 47.281L84.8715 48.541ZM91.72 48.163L91.72 59.827L90.55 59.827L90.55 48.163L87.328 48.163L87.328 46.993L94.96 46.993L94.96 48.163L91.72 48.163ZM102.641 48.163L97.907 48.163L97.907 52.897L102.533 52.897L102.533 53.887L97.907 53.887L97.907 58.639L103.199 58.639L103.199 59.827L96.773 59.827L96.773 46.993L102.641 46.993L102.641 48.163ZM111.055 59.827L106.267 52.843L106.267 59.827L105.133 59.827L105.133 46.993L108.265 46.993C108.757 46.993 109.213 47.089 109.633 47.281C110.065 47.473 110.437 47.731 110.749 48.055C111.061 48.367 111.307 48.733 111.487 49.153C111.667 49.573 111.757 50.017 111.757 50.485C111.757 50.833 111.703 51.193 111.595 51.565C111.499 51.937 111.319 52.285 111.055 52.609C110.791 52.933 110.431 53.215 109.975 53.455C109.519 53.683 108.931 53.833 108.211 53.905L112.369 59.827L111.055 59.827ZM108.265 52.807C108.589 52.807 108.889 52.747 109.165 52.627C109.453 52.495 109.699 52.327 109.903 52.123C110.119 51.907 110.287 51.661 110.407 51.385C110.539 51.097 110.605 50.797 110.605 50.485C110.605 50.161 110.545 49.861 110.425 49.585C110.317 49.297 110.155 49.051 109.939 48.847C109.735 48.631 109.489 48.463 109.201 48.343C108.913 48.223 108.601 48.163 108.265 48.163L106.267 48.163L106.267 52.807L108.265 52.807ZM115.721 52.807L117.845 52.807C118.169 52.807 118.469 52.747 118.745 52.627C119.033 52.495 119.279 52.327 119.483 52.123C119.699 51.907 119.867 51.661 119.987 51.385C120.107 51.097 120.167 50.797 120.167 50.485C120.167 50.161 120.107 49.861 119.987 49.585C119.879 49.297 119.717 49.051 119.501 48.847C119.297 48.631 119.051 48.463 118.763 48.343C118.487 48.223 118.181 48.163 117.845 48.163L115.721 48.163L115.721 52.807ZM115.721 53.977L115.721 59.827L114.569 59.827L114.569 46.993L117.845 46.993C118.337 46.993 118.793 47.089 119.213 47.281C119.633 47.473 119.999 47.731 120.311 48.055C120.623 48.367 120.869 48.733 121.049 49.153C121.229 49.573 121.319 50.017 121.319 50.485C121.319 50.965 121.223 51.415 121.031 51.835C120.851 52.255 120.599 52.627 120.275 52.951C119.963 53.263 119.597 53.515 119.177 53.707C118.757 53.887 118.313 53.977 117.845 53.977L115.721 53.977ZM124.208 47.065L124.208 59.827L123.074 59.827L123.074 47.065L124.208 47.065ZM132.592 48.163L127.858 48.163L127.858 52.897L132.484 52.897L132.484 53.887L127.858 53.887L127.858 58.639L133.15 58.639L133.15 59.827L126.724 59.827L126.724 46.993L132.592 46.993L132.592 48.163ZM141.384 46.903C142.08 46.903 142.788 47.023 143.508 47.263L143.508 48.505C142.812 48.193 142.104 48.037 141.384 48.037C139.908 48.037 138.636 48.571 137.568 49.639C136.5 50.683 135.966 51.955 135.966 53.455C135.966 54.187 136.104 54.877 136.38 55.525C136.668 56.173 137.052 56.743 137.532 57.235C138.024 57.727 138.6 58.117 139.26 58.405C139.92 58.693 140.628 58.837 141.384 58.837C141.732 58.837 142.092 58.801 142.464 58.729C142.836 58.645 143.184 58.531 143.508 58.387L143.508 59.611C143.124 59.743 142.764 59.833 142.428 59.881C142.104 59.941 141.756 59.971 141.384 59.971C139.536 59.971 137.976 59.335 136.704 58.063C136.128 57.475 135.666 56.785 135.318 55.993C134.982 55.201 134.814 54.355 134.814 53.455C134.814 52.543 134.982 51.691 135.318 50.899C135.666 50.107 136.134 49.417 136.722 48.829C137.31 48.229 138 47.761 138.792 47.425C139.596 47.077 140.46 46.903 141.384 46.903ZM151.496 48.163L146.762 48.163L146.762 52.897L151.388 52.897L151.388 53.887L146.762 53.887L146.762 58.639L152.054 58.639L152.054 59.827L145.628 59.827L145.628 46.993L151.496 46.993L151.496 48.163ZM160.378 48.541C160.342 48.517 160.324 48.505 160.324 48.505C160.324 48.505 160.3 48.487 160.252 48.451C159.724 47.995 158.944 47.767 157.912 47.767C157.552 47.767 157.204 47.815 156.868 47.911C156.532 47.995 156.238 48.127 155.986 48.307C155.734 48.475 155.53 48.691 155.374 48.955C155.23 49.207 155.158 49.501 155.158 49.837C155.158 50.185 155.326 50.539 155.662 50.899C156.01 51.247 156.496 51.577 157.12 51.889C157.672 52.165 158.206 52.459 158.722 52.771C159.25 53.071 159.718 53.371 160.126 53.671C160.498 53.959 160.78 54.307 160.972 54.715C161.176 55.123 161.278 55.597 161.278 56.137C161.278 56.701 161.17 57.223 160.954 57.703C160.75 58.171 160.474 58.585 160.126 58.945C159.778 59.293 159.364 59.569 158.884 59.773C158.416 59.965 157.924 60.061 157.408 60.061C157.048 60.061 156.694 60.007 156.346 59.899C155.998 59.803 155.668 59.665 155.356 59.485C155.056 59.293 154.78 59.065 154.528 58.801C154.276 58.525 154.078 58.219 153.934 57.883C154.138 57.775 154.312 57.685 154.456 57.613C154.612 57.529 154.774 57.439 154.942 57.343C155.17 57.799 155.506 58.171 155.95 58.459C156.394 58.747 156.88 58.891 157.408 58.891C157.78 58.891 158.128 58.819 158.452 58.675C158.788 58.531 159.076 58.339 159.316 58.099C159.568 57.859 159.766 57.577 159.91 57.253C160.054 56.917 160.126 56.563 160.126 56.191C160.126 55.399 159.754 54.757 159.01 54.265L159.01 54.283C158.698 54.067 158.404 53.881 158.128 53.725C157.864 53.569 157.594 53.425 157.318 53.293L157.336 53.293C156.892 53.053 156.454 52.807 156.022 52.555C155.59 52.303 155.2 52.027 154.852 51.727C154.3 51.259 154.024 50.563 154.024 49.639C154.024 49.207 154.12 48.817 154.312 48.469C154.516 48.109 154.78 47.803 155.104 47.551C155.44 47.299 155.83 47.107 156.274 46.975C156.73 46.843 157.21 46.777 157.714 46.777C158.746 46.777 159.634 46.945 160.378 47.281L160.378 48.541Z" fill="#FFFFFF" fill-opacity="1.000000" fill-rule="evenodd"/>
	<rect id="Frame 36" width="20.000000" height="20.000000" transform="translate(299.000000 42.000000)" fill="#FFFFFF" fill-opacity="0"/>
	<g clip-path="url(#clip84_173)">
		<path id="Vector" d="M307.285 59L305.572 59C305.42 59 305.275 58.9329 305.168 58.8137C305.061 58.6943 305 58.5325 305 58.3635L305 45.6365C305 45.4675 305.061 45.3057 305.168 45.1863C305.275 45.0671 305.42 45 305.572 45L307.285 45C307.438 45 307.582 45.0671 307.689 45.1863C307.797 45.3057 307.857 45.4675 307.857 45.6365L307.857 58.3635C307.857 58.5325 307.797 58.6943 307.689 58.8137C307.582 58.9329 307.438 59 307.285 59ZM312.428 59L310.715 59C310.562 59 310.418 58.9329 310.311 58.8137C310.203 58.6943 310.143 58.5325 310.143 58.3635L310.143 45.6365C310.143 45.4675 310.203 45.3057 310.311 45.1863C310.418 45.0671 310.562 45 310.715 45L312.428 45C312.58 45 312.725 45.0671 312.832 45.1863C312.939 45.3057 313 45.4675 313 45.6365L313 58.3635C313 58.5325 312.939 58.6943 312.832 58.8137C312.725 58.9329 312.58 59 312.428 59Z" fill="#FFFFFF" fill-opacity="1.000000" fill-rule="nonzero"/>
	</g>
	<rect id="Frame 37" width="20.000000" height="20.000000" transform="translate(326.000000 42.000000)" fill="#FFFFFF" fill-opacity="0"/>
	<g clip-path="url(#clip84_174)">
		<path id="Vector" d="M330.816 49.0808L338.1 56.6738L338.1 57.697C338.1 57.8445 338.061 57.9893 337.988 58.1152C337.914 58.2412 337.809 58.3435 337.682 58.4111C337.557 58.4785 337.416 58.5085 337.273 58.4978C337.133 58.4871 336.998 58.436 336.883 58.3501L332.275 54.9194L330.4 54.9194C330.029 54.9194 329.672 54.7656 329.41 54.4917C329.148 54.218 329 53.8469 329 53.4597L329 50.5405C329 50.1533 329.148 49.7822 329.41 49.5083C329.672 49.2346 330.029 49.0808 330.4 49.0808L330.816 49.0808ZM338.1 46.3032L338.1 53.1575L338.879 53.9697C338.814 53.8398 338.787 53.6924 338.805 53.5466C338.82 53.4009 338.879 53.2639 338.971 53.1531L339.033 53.0881C339.32 52.8196 339.5 52.4321 339.5 52C339.5 51.6265 339.363 51.2666 339.117 50.9958L339.033 50.9119C338.896 50.7822 338.814 50.6018 338.807 50.4097C338.797 50.2175 338.859 50.0293 338.982 49.886C339.105 49.7427 339.279 49.6558 339.463 49.6443C339.646 49.6328 339.828 49.6975 339.967 49.8245C340.26 50.0981 340.496 50.4333 340.656 50.8083C340.816 51.1833 340.9 51.5894 340.9 52C340.9 52.4109 340.818 52.8169 340.656 53.1919C340.496 53.5669 340.262 53.9021 339.967 54.1755C339.861 54.2749 339.729 54.3379 339.588 54.3564C339.445 54.3748 339.303 54.3479 339.176 54.2793L340.205 55.3521C340.191 55.2354 340.205 55.1169 340.244 55.0068C340.285 54.8967 340.35 54.7983 340.434 54.72C340.801 54.3782 341.096 53.9592 341.295 53.4905C341.496 53.0215 341.602 52.5137 341.6 52C341.6 50.9199 341.15 49.9495 340.434 49.28C340.363 49.2166 340.307 49.1392 340.266 49.0525C340.227 48.9658 340.201 48.8718 340.197 48.7756C340.191 48.6792 340.203 48.5828 340.234 48.4919C340.264 48.4009 340.312 48.3169 340.373 48.2451C340.436 48.1733 340.51 48.115 340.594 48.0732C340.678 48.0317 340.768 48.0078 340.859 48.0029C340.951 47.998 341.045 48.0125 341.131 48.0449C341.219 48.0776 341.299 48.1277 341.367 48.1926C341.881 48.6714 342.293 49.2581 342.574 49.9143C342.855 50.5706 343 51.2812 343 52C343 52.719 342.855 53.4297 342.574 54.0859C342.293 54.7422 341.881 55.3289 341.367 55.8076C341.293 55.877 341.205 55.929 341.109 55.9602C341.016 55.9915 340.914 56.0012 340.814 55.9885L341.939 57.1606C342.066 57.2981 342.137 57.4827 342.137 57.6738C342.135 57.8652 342.061 58.0483 341.932 58.1836C341.801 58.3188 341.625 58.3958 341.441 58.3972C341.258 58.3989 341.082 58.3254 340.949 58.1924L330.061 46.8403C329.994 46.7729 329.939 46.6926 329.904 46.6035C329.867 46.5144 329.848 46.4187 329.848 46.3218C329.846 46.2249 329.863 46.1287 329.898 46.0391C329.934 45.9495 329.986 45.8679 330.053 45.7993C330.117 45.731 330.195 45.6768 330.281 45.6399C330.367 45.6033 330.459 45.5847 330.553 45.5857C330.646 45.5864 330.738 45.6067 330.822 45.6448C330.908 45.6831 330.986 45.7388 331.051 45.8083L333.393 48.249L336.883 45.6494C336.998 45.5637 337.133 45.5127 337.275 45.5022C337.416 45.4915 337.557 45.5215 337.684 45.5891C337.809 45.6567 337.914 45.759 337.988 45.885C338.061 46.011 338.1 46.1558 338.1 46.3032Z" fill="#FFFFFF" fill-opacity="1.000000" fill-rule="nonzero"/>
	</g>
</svg>
