<svg width="83.302734" height="84.599609" viewBox="0 0 83.3027 84.5996" fill="none" xmlns="http://www.w3.org/2000/svg" xmlns:xlink="http://www.w3.org/1999/xlink">
	<desc>
			Created with Pixso.
	</desc>
	<defs>
		<filter id="filter_66_356_dd" x="0.000000" y="0.000000" width="83.302734" height="84.599609" filterUnits="userSpaceOnUse" color-interpolation-filters="sRGB">
			<feFlood flood-opacity="0" result="BackgroundImageFix"/>
			<feColorMatrix in="SourceAlpha" type="matrix" values="0 0 0 0 0 0 0 0 0 0 0 0 0 0 0 0 0 0 127 0" result="hardAlpha"/>
			<feOffset dx="0" dy="4"/>
			<feGaussianBlur stdDeviation="11.4333"/>
			<feComposite in2="hardAlpha" operator="out" k2="-1" k3="1"/>
			<feColorMatrix type="matrix" values="0 0 0 0 1 0 0 0 0 1 0 0 0 0 1 0 0 0 0.25 0"/>
			<feBlend mode="normal" in2="BackgroundImageFix" result="effect_dropShadow_1"/>
			<feBlend mode="normal" in="SourceGraphic" in2="effect_dropShadow_1" result="shape"/>
		</filter>
	</defs>
	<g filter="url(#filter_66_356_dd)">
		<path id="Soft Star" d="M41.4551 30.4893C41.4824 30.2368 41.8203 30.2368 41.8477 30.4893L42.0801 32.6108C42.3789 35.3501 44.3633 37.5098 46.8789 37.8345L48.8281 38.0864C49.0605 38.1162 49.0605 38.4834 48.8281 38.5132L46.8789 38.7651C44.3633 39.0898 42.3789 41.2495 42.0801 43.9888L41.8477 46.1104C41.8203 46.3628 41.4824 46.3628 41.4551 46.1104L41.2246 43.9888C40.9258 41.2495 38.9414 39.0898 36.4238 38.7651L34.4746 38.5132C34.2422 38.4834 34.2422 38.1162 34.4746 38.0864L36.4238 37.8345C38.9414 37.5098 40.9258 35.3501 41.2246 32.6108L41.4551 30.4893Z" fill="#BE702D" fill-opacity="1.000000" fill-rule="nonzero"/>
	</g>
</svg>
