<svg width="148.000000" height="31.000000" viewBox="0 0 148 31" fill="none" xmlns="http://www.w3.org/2000/svg" xmlns:xlink="http://www.w3.org/1999/xlink">
	<desc>
			Created with Pixso.
	</desc>
	<defs>
		<clipPath id="clip15_345">
			<rect id="Hubble Sign - Entrance PDF-1 1" width="148.000000" height="31.000000" fill="white" fill-opacity="0"/>
		</clipPath>
	</defs>
	<rect id="Hubble Sign - Entrance PDF-1 1" width="148.000000" height="31.000000" fill="#FFFFFF" fill-opacity="0"/>
	<g clip-path="url(#clip15_345)">
		<path id="Vector" d="M0.0429688 31C0.0429688 20.6821 0.0429688 10.3644 0.0429688 0.0437012C49.3496 0.0437012 98.6562 0.0437012 147.98 0.0638428C148 10.2922 148 20.5005 148 30.7087C148 30.8033 147.998 30.8981 147.979 30.9965C98.6543 31.0001 49.3477 31 0.0429688 31ZM83.5254 24.1387C85.4102 24.1387 87.2969 24.1398 89.1836 24.137C89.3887 24.1366 89.5957 24.1252 89.7988 24.0984C92.9512 23.6821 94.9492 20.4583 93.9648 17.3761C93.748 16.691 93.3965 16.082 92.9316 15.5345C92.9805 15.4756 93.0215 15.4271 93.0625 15.3766C93.9766 14.2113 94.3652 12.8809 94.1641 11.4025C93.8105 8.7865 91.6914 6.92725 89.1094 6.92725C85.2949 6.92712 81.4805 6.92725 77.666 6.92725C77.582 6.92725 77.498 6.92725 77.4082 6.92725C77.4082 12.6743 77.4082 18.4023 77.4082 24.1387C79.4414 24.1387 81.4629 24.1387 83.5254 24.1387ZM70.3496 17.1638C70.1309 16.5592 69.8008 16.0228 69.3906 15.535C69.4395 15.4757 69.4766 15.4319 69.5117 15.3868C70.5 14.1285 70.877 12.6963 70.5723 11.1157C70.0938 8.61804 68.0508 6.92981 65.5586 6.92798C61.7305 6.92505 57.9023 6.92725 54.0723 6.92725C54.0039 6.92725 53.9355 6.92725 53.8672 6.92725C53.8672 12.6777 53.8672 18.4008 53.8672 24.1387C53.9258 24.1387 53.9746 24.1387 54.0215 24.1387C57.9141 24.1387 61.8086 24.1403 65.7012 24.1351C65.9766 24.1348 66.2559 24.1047 66.5273 24.0543C69.6152 23.4801 71.4492 20.194 70.3496 17.1638ZM132.303 6.92712C129.701 6.92712 127.098 6.92712 124.492 6.92712C124.492 12.6786 124.492 18.4041 124.492 24.1278C130.1 24.1278 135.691 24.1278 141.287 24.1278C141.287 22.9834 141.287 21.8501 141.287 20.6951C136.805 20.6951 132.332 20.6951 127.854 20.6951C127.854 19.5408 127.854 18.4081 127.854 17.2548C132.338 17.2548 136.811 17.2548 141.287 17.2548C141.287 16.1002 141.287 14.9666 141.287 13.8137C136.807 13.8137 132.332 13.8137 127.857 13.8137C127.857 12.6559 127.857 11.5172 127.857 10.3585C132.344 10.3585 136.816 10.3585 141.281 10.3585C141.281 9.20581 141.281 8.07324 141.281 6.92712C138.295 6.92712 135.32 6.92712 132.303 6.92712ZM20.2168 11.7397C20.2168 12.428 20.2168 13.1162 20.2168 13.8036C16.8398 13.8036 13.4902 13.8036 10.1211 13.8036C10.1211 11.5088 10.1211 9.22559 10.1211 6.94226C8.99609 6.94226 7.88867 6.94226 6.7793 6.94226C6.7793 12.6808 6.7793 18.4042 6.7793 24.1274C7.90039 24.1274 9.00781 24.1274 10.1367 24.1274C10.1367 21.8337 10.1367 19.5511 10.1367 17.2738C13.5098 17.2738 16.8574 17.2738 20.2227 17.2738C20.2227 19.5656 20.2227 21.8434 20.2227 24.1239C21.3516 24.1239 22.4648 24.1239 23.5684 24.1239C23.5684 18.3862 23.5684 12.6633 23.5684 6.94177C22.4473 6.94177 21.3398 6.94177 20.2168 6.94177C20.2168 8.53625 20.2168 10.1162 20.2168 11.7397ZM31.668 20.3351C33.2285 22.6093 35.3613 23.8971 38.0664 24.1173C40.0293 24.277 41.8535 23.7792 43.4668 22.6106C45.752 20.9554 47.0273 18.6825 47.1016 15.8126C47.1758 12.8855 47.1211 9.95471 47.123 7.02551C47.123 6.99841 47.1133 6.97119 47.1074 6.94128C45.9941 6.94128 44.8887 6.94128 43.7656 6.94128C43.7656 7.03455 43.7656 7.11377 43.7656 7.19299C43.7656 9.94006 43.7676 12.6871 43.7637 15.4342C43.7637 15.6595 43.7559 15.8864 43.7285 16.11C43.3516 19.3477 40.1758 21.443 37.1387 20.4598C35.0098 19.7708 33.5605 17.7355 33.582 15.4502C33.6074 12.6827 33.6406 9.91541 33.668 7.14795C33.6699 7.07861 33.6621 7.00928 33.6602 6.94189C32.5039 6.94189 31.3691 6.94189 30.2246 6.94189C30.2227 7.01318 30.2168 7.07019 30.2168 7.12732C30.2168 9.91077 30.2129 12.6943 30.2188 15.4778C30.2227 17.233 30.6973 18.8463 31.668 20.3351ZM104.305 12.483C104.305 10.6357 104.305 8.78845 104.305 6.94653C103.166 6.94653 102.055 6.94653 100.943 6.94653C100.943 12.6831 100.943 18.4004 100.943 24.1265C106.549 24.1265 112.146 24.1265 117.748 24.1265C117.748 22.9821 117.748 21.8499 117.748 20.6965C113.264 20.6965 108.793 20.6965 104.305 20.6965C104.305 17.9592 104.305 15.243 104.305 12.483Z" fill="#020404" fill-opacity="0" fill-rule="nonzero"/>
		<path id="Vector" d="M0.0429688 31.0219C49.3477 31 98.6543 31.0001 147.979 31.0092C147.998 31.0267 148 31.0352 148 31.0437C98.6816 31.0437 49.3613 31.0437 0.0429688 31.0219Z" fill="#565656" fill-opacity="1.000000" fill-rule="nonzero"/>
		<path id="Vector" d="M148.021 31.0438C147.998 31.0353 147.998 31.0267 147.996 31.0055C147.996 30.8981 148 30.8035 148 30.7089C148 20.5005 148 10.2922 148 0.0638428C148.014 0.0510254 148.041 0.0576172 148.041 0.0657959C148.045 0.123779 148.043 0.182251 148.043 0.240479C148.043 10.5083 148.043 20.776 148.021 31.0438Z" fill="#696B6B" fill-opacity="1.000000" fill-rule="nonzero"/>
		<path id="Vector" d="M83.5039 24.1387C81.4609 24.1387 79.4414 24.1387 77.4082 24.1387C77.4082 18.4025 77.4082 12.6744 77.4082 6.92725C77.498 6.92725 77.582 6.92725 77.666 6.92725C81.4805 6.92725 85.2949 6.92725 89.1094 6.92725C91.6914 6.92737 93.8105 8.7865 94.1641 11.4025C94.3652 12.881 93.9766 14.2114 93.0605 15.3767C93.0215 15.4272 92.9785 15.4757 92.9297 15.5347C93.3965 16.0822 93.7461 16.6912 93.9648 17.3761C94.9492 20.4584 92.9512 23.6823 89.7988 24.0984C89.5957 24.1254 89.3887 24.1367 89.1816 24.1371C87.2969 24.1399 85.4102 24.1387 83.5039 24.1387ZM89.5703 13.7668C90.334 13.527 90.8262 12.9153 90.8477 12.1788C90.8789 11.1519 90.127 10.3689 89.1016 10.368C86.3887 10.3661 83.6758 10.3674 80.9648 10.3674C80.9023 10.3674 80.8398 10.3674 80.7734 10.3674C80.7734 11.5265 80.7734 12.6646 80.7734 13.8153C80.8281 13.8153 80.8691 13.8153 80.9102 13.8153C83.6582 13.8153 86.4062 13.8159 89.1543 13.8135C89.2812 13.8134 89.4082 13.7871 89.5703 13.7668ZM80.793 20.6909C80.8281 20.6925 80.8633 20.6954 80.8984 20.6954C83.6445 20.6957 86.3906 20.6957 89.1367 20.6953C89.2012 20.6953 89.2637 20.693 89.3281 20.6881C90.1387 20.6256 90.8145 19.9076 90.8477 19.0764C90.8867 18.0492 90.1406 17.2618 89.1152 17.2607C86.3828 17.2579 83.6523 17.2599 80.9199 17.2599C80.873 17.2599 80.8242 17.2599 80.7656 17.2599C80.7656 18.4059 80.7656 19.5317 80.793 20.6909Z" fill="#FEFEFE" fill-opacity="1.000000" fill-rule="nonzero"/>
		<path id="Vector" d="M70.3535 17.1804C71.4492 20.1941 69.6152 23.4802 66.5273 24.0544C66.2559 24.1049 65.9766 24.1349 65.7012 24.1353C61.8086 24.1404 57.916 24.1387 54.0215 24.1387C53.9746 24.1387 53.9258 24.1387 53.8672 24.1387C53.8672 18.4009 53.8672 12.6777 53.8672 6.92725C53.9355 6.92725 54.0039 6.92725 54.0723 6.92725C57.9023 6.92725 61.7305 6.92517 65.5605 6.92798C68.0508 6.92993 70.0938 8.61804 70.5723 11.1158C70.877 12.6964 70.5 14.1285 69.5117 15.387C69.4766 15.432 69.4395 15.4758 69.3906 15.535C69.8008 16.0228 70.1309 16.5593 70.3535 17.1804ZM66.9316 13.1797C67.3555 12.6061 67.4414 11.9818 67.1309 11.3368C66.8184 10.6821 66.2715 10.3698 65.5625 10.3688C62.8457 10.3654 60.127 10.3673 57.4102 10.3679C57.3496 10.3679 57.2871 10.3746 57.2266 10.3783C57.2266 11.5311 57.2266 12.6647 57.2266 13.8153C57.3047 13.8153 57.375 13.8153 57.4453 13.8153C60.1406 13.8153 62.8379 13.8129 65.5332 13.8174C66.0859 13.8182 66.5469 13.629 66.9316 13.1797ZM65.8633 17.2733C65.75 17.2688 65.6367 17.2604 65.5234 17.2604C62.834 17.2596 60.1445 17.2598 57.4551 17.2598C57.3809 17.2598 57.3047 17.2598 57.2305 17.2598C57.2305 18.4183 57.2305 19.5499 57.2305 20.6957C57.3008 20.6957 57.3574 20.6957 57.4121 20.6957C60.1367 20.6957 62.8613 20.6958 65.5859 20.6952C65.6641 20.6952 65.7422 20.6907 65.8203 20.6838C66.7188 20.6052 67.4238 19.6954 67.2988 18.7812C67.1895 17.9995 66.707 17.4785 65.8633 17.2733Z" fill="#FEFEFE" fill-opacity="1.000000" fill-rule="nonzero"/>
		<path id="Vector" d="M132.324 6.92712C135.32 6.92712 138.295 6.92712 141.283 6.92712C141.283 8.07324 141.283 9.20581 141.283 10.3584C136.816 10.3584 132.344 10.3584 127.857 10.3584C127.857 11.5172 127.857 12.6559 127.857 13.8137C132.334 13.8137 136.807 13.8137 141.287 13.8137C141.287 14.9666 141.287 16.1002 141.287 17.2548C136.811 17.2548 132.338 17.2548 127.854 17.2548C127.854 18.4081 127.854 19.5408 127.854 20.6951C132.332 20.6951 136.805 20.6951 141.287 20.6951C141.287 21.8501 141.287 22.9834 141.287 24.1278C135.691 24.1278 130.1 24.1278 124.492 24.1278C124.492 18.4041 124.492 12.6786 124.492 6.92712C127.098 6.92712 129.701 6.92712 132.324 6.92712Z" fill="#FEFEFE" fill-opacity="1.000000" fill-rule="nonzero"/>
		<path id="Vector" d="M20.2188 11.7179C20.2188 10.1161 20.2188 8.53625 20.2188 6.94177C21.3418 6.94177 22.4473 6.94177 23.5684 6.94177C23.5684 12.6633 23.5684 18.3862 23.5684 24.1239C22.4648 24.1239 21.3535 24.1239 20.2246 24.1239C20.2246 21.8434 20.2246 19.5656 20.2246 17.2738C16.8594 17.2738 13.5098 17.2738 10.1387 17.2738C10.1387 19.5511 10.1387 21.8336 10.1387 24.1273C9.00977 24.1273 7.90234 24.1273 6.78125 24.1273C6.78125 18.4041 6.78125 12.6808 6.78125 6.94226C7.89062 6.94226 8.99609 6.94226 10.123 6.94226C10.123 9.22546 10.123 11.5088 10.123 13.8036C13.4922 13.8036 16.8418 13.8036 20.2188 13.8036C20.2188 13.1162 20.2188 12.428 20.2188 11.7179Z" fill="#FEFEFE" fill-opacity="1.000000" fill-rule="nonzero"/>
		<path id="Vector" d="M31.6602 20.3219C30.6973 18.8464 30.2227 17.233 30.2188 15.4779C30.2129 12.6943 30.2168 9.91089 30.2168 7.12732C30.2168 7.07031 30.2207 7.01331 30.2246 6.94202C31.3691 6.94202 32.5039 6.94202 33.6582 6.94202C33.6621 7.00928 33.6699 7.07874 33.668 7.14807C33.6387 9.91541 33.6074 12.6827 33.582 15.4502C33.5605 17.7356 35.0098 19.7709 37.1387 20.46C40.1738 21.443 43.3516 19.3477 43.7285 16.11C43.7559 15.8865 43.7637 15.6597 43.7637 15.4343C43.7656 12.6871 43.7656 9.94006 43.7656 7.19299C43.7656 7.11389 43.7656 7.03467 43.7656 6.94141C44.8887 6.94141 45.9941 6.94141 47.1074 6.94141C47.1133 6.97119 47.123 6.99841 47.123 7.02563C47.1211 9.95483 47.1758 12.8855 47.1016 15.8127C47.0273 18.6825 45.752 20.9556 43.4668 22.6107C41.8516 23.7792 40.0293 24.2771 38.0664 24.1173C35.3613 23.8971 33.2285 22.6094 31.6602 20.3219Z" fill="#FEFEFE" fill-opacity="1.000000" fill-rule="nonzero"/>
		<path id="Vector" d="M104.303 12.5049C104.303 15.243 104.303 17.9592 104.303 20.6965C108.791 20.6965 113.264 20.6965 117.746 20.6965C117.746 21.8499 117.746 22.9821 117.746 24.1265C112.146 24.1265 106.549 24.1265 100.943 24.1265C100.943 18.4004 100.943 12.6831 100.943 6.94653C102.055 6.94653 103.166 6.94653 104.303 6.94653C104.303 8.78845 104.303 10.6357 104.303 12.5049Z" fill="#FEFEFE" fill-opacity="1.000000" fill-rule="nonzero"/>
	</g>
</svg>
